<?xml version="1.0" standalone="no"?>
<!DOCTYPE svg PUBLIC "-//W3C//DTD SVG 1.1//EN" "http://www.w3.org/Graphics/SVG/1.1/DTD/svg11.dtd" >
<svg xmlns="http://www.w3.org/2000/svg" xmlns:xlink="http://www.w3.org/1999/xlink" version="1.1">
<metadata>
Created by FontForge 20161003 at Thu Nov 17 14:24:00 2016
 By www-data
Copyright (c) 2016 by fontiran.com. All rights reserved.
</metadata>
<defs>
<font id="IRANYekanWeb-Light" horiz-adv-x="0" >
  <font-face 
    font-family="IRANYekanWeb Light"
    font-weight="300"
    font-stretch="normal"
    units-per-em="2200"
    panose-1="2 11 5 6 3 8 4 2 2 4"
    ascent="1760"
    descent="-440"
    bbox="-461 -1102 3096 2703.86"
    underline-thickness="100"
    underline-position="-850"
    unicode-range="U+001D-FEFF"
  />
<missing-glyph horiz-adv-x="1229" 
d="M102 -362v1806h1024v-1806h-1024zM217 -248h795v1577h-795v-1577z" />
    <glyph glyph-name="uni06440627.isol" unicode="&#xfedf;&#xfe8e;" horiz-adv-x="1302" arabic-form="isolated" 
d="M1099 617q0 -128 -13.5 -224t-42 -164.5t-72.5 -113t-106.5 -70t-143 -35.5t-181.5 -10h-403v123h403q103 4 175.5 17t121 37.5t76.5 62t42 91t17.5 124.5t3.5 162v811h123v-811zM258 332v1095h125v-1095h-125z" />
    <glyph glyph-name="uni06440627.fina" unicode="&#xfee0;&#xfe8e;" horiz-adv-x="1340" arabic-form="final" 
d="M1124 617v-1q0 -122 7.5 -214t29.5 -154t61.5 -93.5t103.5 -31.5h33v-123h-33q-56 0 -99 15t-76.5 41t-57.5 62t-40 78q-30 -58 -75 -96t-105 -60t-137 -31t-171 -9h-403v123h403q103 4 175.5 17t121 37.5t76.5 62t42 91t17.5 124.5t3.5 162v811h123v-811zM283 332v1095
h125v-1095h-125z" />
    <glyph glyph-name="uni06440623.isol" unicode="&#xfedf;&#xfe84;" horiz-adv-x="1258" arabic-form="isolated" 
d="M1099 617q0 -128 -13.5 -224t-42 -164.5t-72.5 -113t-106.5 -70t-143 -35.5t-181.5 -10h-403v123h403q103 4 175.5 17t121 37.5t76.5 62t42 91t17.5 124.5t3.5 162v811h123v-811zM258 332v1095h125v-1095h-125zM-29 1468q2 29 3 52t3 52l157 50q-26 7 -47.5 24t-36.5 39
t-23 48t-8 52q0 31 11 62.5t31 59.5t49 49.5t65 32.5q33 10 61.5 9t54.5 -7.5t49.5 -16t45.5 -18.5l-21 -82q-17 6 -36.5 13.5t-40 12.5t-42 5.5t-43.5 -5.5q-21 -6 -39.5 -20.5t-31.5 -34t-17.5 -41.5t1.5 -43q10 -32 54.5 -54.5t104.5 -22.5q45 0 96 13.5t98 27.5l28 -88z
" />
    <glyph glyph-name="uni06440623.fina" unicode="&#xfee0;&#xfe84;" horiz-adv-x="1352" arabic-form="final" 
d="M1124 617v-1q0 -122 7.5 -214t29.5 -154t61.5 -93.5t103.5 -31.5h33v-123h-33q-56 0 -99 15t-76.5 41t-57.5 62t-40 78q-30 -58 -75 -96t-105 -60t-137 -31t-171 -9h-403v123h403q103 4 175.5 17t121 37.5t76.5 62t42 91t17.5 124.5t3.5 162v811h123v-811zM283 332v1095
h125v-1095h-125zM24 1492q2 29 3 52t3 52l157 50q-26 7 -47.5 24t-36.5 39t-23 48t-8 52q0 31 11 62.5t31 59.5t49 49.5t65 32.5q33 10 61.5 9t54.5 -7.5t49.5 -16t45.5 -18.5l-21 -82q-17 6 -36.5 13.5t-40 12.5t-42 5.5t-43.5 -5.5q-21 -6 -39.5 -20.5t-31.5 -34
t-17.5 -41.5t1.5 -43q10 -32 54.5 -54.5t104.5 -22.5q45 0 96 13.5t98 27.5l28 -88z" />
    <glyph glyph-name="uni06440625.isol" unicode="&#xfedf;&#xfe88;" horiz-adv-x="1275" arabic-form="isolated" 
d="M1099 617q0 -128 -13.5 -224t-42 -164.5t-72.5 -113t-106.5 -70t-143 -35.5t-181.5 -10h-403v123h403q103 4 175.5 17t121 37.5t76.5 62t42 91t17.5 124.5t3.5 162v811h123v-811zM258 332v1095h125v-1095h-125zM262 -672q2 29 3 52t3 52l157 50q-26 7 -47.5 24t-36.5 39
t-23 48t-8 52q0 31 11 62.5t31 59.5t49 49.5t65 32.5q33 10 61.5 9t54.5 -7.5t49.5 -16t45.5 -18.5l-21 -82q-17 6 -36.5 13.5t-40 12.5t-42 5.5t-43.5 -5.5q-21 -6 -39.5 -20.5t-31.5 -34t-17.5 -41.5t1.5 -43q10 -32 54.5 -54.5t104.5 -22.5q45 0 96 13.5t98 27.5l28 -88z
" />
    <glyph glyph-name="uni06440625.fina" unicode="&#xfee0;&#xfe88;" horiz-adv-x="1344" arabic-form="final" 
d="M1124 617v-1q0 -122 7.5 -214t29.5 -154t61.5 -93.5t103.5 -31.5h33v-123h-33q-56 0 -99 15t-76.5 41t-57.5 62t-40 78q-30 -58 -75 -96t-105 -60t-137 -31t-171 -9h-403v123h403q103 4 175.5 17t121 37.5t76.5 62t42 91t17.5 124.5t3.5 162v811h123v-811zM283 332v1095
h125v-1095h-125zM257 -669q2 29 3 52t3 52l157 50q-26 7 -47.5 24t-36.5 39t-23 48t-8 52q0 31 11 62.5t31 59.5t49 49.5t65 32.5q33 10 61.5 9t54.5 -7.5t49.5 -16t45.5 -18.5l-21 -82q-17 6 -36.5 13.5t-40 12.5t-42 5.5t-43.5 -5.5q-21 -6 -39.5 -20.5t-31.5 -34
t-17.5 -41.5t1.5 -43q10 -32 54.5 -54.5t104.5 -22.5q45 0 96 13.5t98 27.5l28 -88z" />
    <glyph glyph-name="uni06440622.isol" unicode="&#xfedf;&#xfe82;" horiz-adv-x="1258" arabic-form="isolated" 
d="M1099 617q0 -128 -13.5 -224t-42 -164.5t-72.5 -113t-106.5 -70t-143 -35.5t-181.5 -10h-403v123h403q103 4 175.5 17t121 37.5t76.5 62t42 91t17.5 124.5t3.5 162v811h123v-811zM258 332v1095h125v-1095h-125zM761 1584h-491q-71 0 -116.5 -9.5t-75 -29t-47 -49.5
t-32.5 -72q-34 10 -59.5 18t-56.5 17q25 75 55.5 123.5t74.5 76t106 38t151 10.5h491v-123z" />
    <glyph glyph-name="uni06440622.fina" unicode="&#xfee0;&#xfe82;" horiz-adv-x="1340" arabic-form="final" 
d="M1124 617v-1q0 -122 7.5 -214t29.5 -154t61.5 -93.5t103.5 -31.5h33v-123h-33q-56 0 -99 15t-76.5 41t-57.5 62t-40 78q-30 -58 -75 -96t-105 -60t-137 -31t-171 -9h-403v123h403q103 4 175.5 17t121 37.5t76.5 62t42 91t17.5 124.5t3.5 162v811h123v-811zM283 332v1095
h125v-1095h-125zM750 1591h-491q-71 0 -116.5 -9.5t-75 -29t-47 -49.5t-32.5 -72q-34 10 -59.5 18t-56.5 17q25 75 55.5 123.5t74.5 76t106 38t151 10.5h491v-123z" />
    <glyph glyph-name="uni06440671.isol" unicode="&#xfedf;&#xfb51;" horiz-adv-x="1258" 
d="M1099 617q0 -128 -13.5 -224t-42 -164.5t-72.5 -113t-106.5 -70t-143 -35.5t-181.5 -10h-403v123h403q103 4 175.5 17t121 37.5t76.5 62t42 91t17.5 124.5t3.5 162v811h123v-811zM258 332v1095h125v-1095h-125zM-9 1530l19 85h129l47 73l83 122q38 46 84 77t103 31
q33 0 64.5 -12t56.5 -37.5t40.5 -64.5t15.5 -92q0 -51 -17 -85.5t-43 -56t-58.5 -31t-63.5 -9.5h-460zM451 1615q42 0 69 23t27 74q0 58 -23.5 89.5t-67.5 31.5q-32 0 -61 -20t-56 -51.5t-51.5 -69.5t-45.5 -74q-1 -1 -1 -3h210z" />
    <glyph glyph-name="uni06440671.fina" unicode="&#xfee0;&#xfb51;" horiz-adv-x="1346" 
d="M1124 617v-1q0 -122 7.5 -214t29.5 -154t61.5 -93.5t103.5 -31.5h33v-123h-33q-56 0 -99 15t-76.5 41t-57.5 62t-40 78q-30 -58 -75 -96t-105 -60t-137 -31t-171 -9h-403v123h403q103 4 175.5 17t121 37.5t76.5 62t42 91t17.5 124.5t3.5 162v811h123v-811zM283 332v1095
h125v-1095h-125zM-32 1544l19 85h129l47 73l83 122q38 46 84 77t103 31q33 0 64.5 -12t56.5 -37.5t40.5 -64.5t15.5 -92q0 -51 -17 -85.5t-43 -56t-58.5 -31t-63.5 -9.5h-460zM428 1629q42 0 69 23t27 74q0 58 -23.5 89.5t-67.5 31.5q-32 0 -61 -20t-56 -51.5t-51.5 -69.5
t-45.5 -74q-1 -1 -1 -3h210z" />
    <glyph glyph-name="allah" unicode="&#xfedf;&#xfee0;&#xfeea;" horiz-adv-x="2235" arabic-form="isolated" 
d="M1311 1307q-87 0 -136 48t-49 134v91l91 15v-106q0 -48 22 -70t72 -22q7 0 20.5 2.5t26.5 12t23 28t10 49.5v90l92 20v-110q0 -48 22 -70.5t73 -22.5q7 0 20 3.5t26 13t22 28t9 48.5q0 15 -3.5 36t-8.5 42t-9.5 39t-7.5 27l85 29q1 -5 7 -23.5t12 -44t11 -53.5t5 -52
q0 -47 -15 -81.5t-39.5 -57t-55 -33.5t-60.5 -11q-92 0 -140 53q-25 -27 -58 -39.5t-67 -12.5zM1389 1975l93 22v-278l-93 -23v279zM1108 0q-93 0 -159 25t-109.5 70t-67.5 107.5t-34 137.5l-69 538l-155 -32q-59 -15 -107 -46.5t-71 -71.5q-19 -34 -27.5 -75t-8.5 -88
q0 -51 10.5 -115t26 -130t33 -128.5t31.5 -110.5l19 -61q-36 -11 -62.5 -18t-57.5 -15l-17 58q-17 55 -35.5 122.5t-34.5 137t-26.5 137t-10.5 124.5q0 59 13 116.5t40 107.5q37 61 104.5 109.5t150.5 67.5q18 5 47.5 11.5t60.5 13t57 11.5t36 7l89 -57l82 -574
q12 -82 37 -132t59 -77t74.5 -36t81.5 -9q91 0 144 22.5t80.5 56.5t35.5 75t8 78v745q37 8 65 15l60 15l-1 -775q0 -57 18 -99.5t51.5 -71.5t80.5 -44t104 -17h10q70 0 119 12t79 40t43.5 72t13.5 109l-55 877l125 61l54 -941q0 -32 -3 -65.5t-12 -67t-26 -65.5t-45 -60
q-26 -24 -52 -42.5t-58.5 -30.5t-76.5 -18t-106 -6h-10q-36 0 -76.5 5t-82 19t-82 40t-76.5 68q-32 -33 -64.5 -58t-71 -41.5t-85 -24.5t-106.5 -8h-2z" />
    <glyph glyph-name="riyal" unicode="&#x631;&#xfef3;&#xfe8e;&#x644;" horiz-adv-x="3220" arabic-form="isolated" 
d="M1333 -48q0 -115 -25.5 -200.5t-79.5 -148.5q-40 -45 -88.5 -74.5t-103 -47.5t-115 -25t-123.5 -7h-72q-125 0 -228.5 55.5t-167.5 158.5q-44 69 -64.5 155t-16.5 183q4 105 35.5 219t90.5 237l111 -53q-100 -210 -113.5 -383t61.5 -293q47 -75 123 -115.5t169 -40.5h72
q122 0 205 27.5t131 83.5q39 45 57.5 111t18.5 158v1475h123v-1475zM2390 -553v122h139q235 0 344 123q100 114 100 341v642h123v-642q0 -290 -143.5 -438t-423.5 -148h-139zM2175 -511l-124 125l122 124l126 -125zM1767 -509l-124 125l122 124l126 -125zM1990 0
q-119 0 -190.5 28t-109.5 83t-50 135.5t-12 185.5v995h125v-995q0 -93 6 -153t30 -94.5t71.5 -48t129.5 -13.5h14v-123h-14v0zM2501 804q10 -43 22 -95t21.5 -107.5t16.5 -112.5t9 -109q1 -71 -20.5 -139.5t-62.5 -122t-100.5 -86t-133.5 -32.5h-260v123h260q48 3 84.5 25
t61 57.5t37 80t11.5 91.5q-1 48 -7.5 100t-16 103t-20.5 99t-21 89l119 36v0z" />
    <glyph glyph-name="uni0621" unicode="&#x621;" horiz-adv-x="1004" arabic-form="isolated" 
d="M99 -44l-6 127l299 91q-7 3 -13.5 6t-12.5 7q-68 35 -117 93.5t-71 130.5q-19 62 -10.5 123.5t38.5 115t78 93.5t109 59q42 13 83.5 14.5t84 -3.5t85.5 -14.5t87 -19.5l-28 -120q-44 10 -82.5 18.5t-72.5 13t-64 3.5t-57 -9q-38 -12 -67.5 -34.5t-47.5 -53t-23.5 -69
t4.5 -81.5q4 -11 12 -30t23 -40t37.5 -42.5t55.5 -38.5q123 -66 319 -16l149 42l5 -125z" />
    <glyph glyph-name="uni0627" unicode="&#x627;" horiz-adv-x="480" arabic-form="isolated" 
d="M321 0h-125v1427h125v-1427z" />
    <glyph glyph-name="uni0627.fina" unicode="&#x627;" horiz-adv-x="523" arabic-form="final" 
d="M523 0q-119 0 -190.5 28t-109.5 83t-50 135.5t-12 185.5v995h125v-995q0 -93 6 -153t30 -94.5t71.5 -48t129.5 -13.5h14v-123h-14v0z" />
    <glyph glyph-name="uni062D" unicode="&#x62d;" horiz-adv-x="1449" arabic-form="isolated" 
d="M479 1084q22 -3 38.5 -5t37 -6.5t50 -13.5t78 -27.5t121 -48t179.5 -74.5q69 -29 133 -57t113.5 -49.5t79.5 -35l30 -13.5l-4 -114q-1 0 -44.5 -16t-124 -46t-195 -72.5t-256.5 -96.5q-46 -17 -94.5 -34.5t-96.5 -38t-94.5 -46t-87.5 -59.5q-68 -54 -97.5 -123
t-24.5 -163q3 -70 29.5 -125.5t70 -97t101 -70.5t121 -47t130.5 -26t131 -8h438v-123h-438q-138 0 -263 30t-222 91t-156 153t-65 217q-12 244 168 388q44 36 93.5 63.5t101.5 50.5t105.5 43t106.5 40q77 29 153 55.5t144 49t125 41.5t98 34q-67 29 -140 59.5t-145 59
t-140 54t-125 44t-99.5 29.5t-64.5 11q-63 0 -113.5 -50t-73.5 -139l-119 31q15 55 41.5 104.5t65 88t88.5 62t112 26.5z" />
    <glyph glyph-name="uni062D.init" unicode="&#x62d;" horiz-adv-x="1368" arabic-form="initial" 
d="M428 853q31 0 79.5 -11.5t108.5 -30.5t127 -43.5t134 -51t130 -52.5t115.5 -48t90 -37.5t53.5 -21.5l17 -111q-99 -72 -184 -133t-170 -110.5t-176 -87.5t-202 -63.5t-248 -38.5t-313 -13v123q150 -1 268 8.5t215.5 29t180 49.5t161.5 71t159.5 92.5t173.5 114.5
q-69 26 -142.5 54t-145.5 55t-140 51t-125 42.5t-100.5 29t-67.5 10.5q-63 0 -113.5 -50t-73.5 -139l-119 31q15 58 42.5 109t66.5 89t88.5 60.5t109.5 22.5z" />
    <glyph glyph-name="uni062D.medi" unicode="&#x62d;" horiz-adv-x="1528" arabic-form="medial" 
d="M1541 0h-72q-33 0 -73 5t-79.5 15t-74 24.5t-57.5 32.5q-45 36 -72.5 84.5t-36.5 106.5q-68 -43 -137.5 -80t-144.5 -67t-158.5 -52.5t-181 -37.5t-211.5 -23t-250 -8v123q150 0 271.5 9t224 28t191 48.5t172 69.5t167.5 91.5t177 114.5q-69 26 -142.5 54.5t-145.5 55.5
t-139.5 52t-124.5 43.5t-100.5 29.5t-67.5 11q-63 0 -113.5 -50t-73.5 -139l-119 31q15 58 42.5 109t66.5 89t88.5 60.5t109.5 22.5q31 0 79.5 -11.5t108.5 -30.5t127 -43.5t134 -51t130 -52.5t115.5 -48t90 -37.5t53.5 -21.5l17 -111q-38 -28 -74.5 -54t-71.5 -51
q0 -53 22 -94t60 -68.5t90 -41.5t111 -14h72v-123z" />
    <glyph glyph-name="uni062D.fina" unicode="&#x62d;" horiz-adv-x="1575" arabic-form="final" 
d="M464 877q23 -3 39 -5t36.5 -6.5t50 -13.5t78 -27.5t121 -48t179.5 -74.5q69 -29 133 -57t113.5 -49.5t79.5 -35l30 -13.5l-4 -114q-1 -1 -44 -16.5t-123 -45.5v-54q0 -54 20 -91t51.5 -60t70 -33t76.5 -10h225v-123h-225q-67 0 -127 20t-106 57q-53 44 -80.5 104.5
t-27.5 135.5v9q-69 -26 -151.5 -57t-178.5 -67q-46 -17 -94.5 -34.5t-96.5 -38t-94.5 -46t-87.5 -59.5q-68 -54 -97.5 -123t-24.5 -163q3 -71 29.5 -126t70 -96.5t101 -70.5t121 -47t130.5 -26t131 -8h438v-123h-438q-138 0 -263 30t-222 91t-156 153t-65 217
q-12 244 168 388q44 36 93.5 63.5t101.5 50.5t105.5 43t106.5 40q77 29 154.5 55t147.5 48.5t129 41t100 33.5q-67 29 -140.5 59.5t-147 59.5t-143 54.5t-127.5 44.5t-101.5 30t-65.5 11q-63 0 -113.5 -50t-73.5 -139l-119 31q15 55 41.5 104.5t65 88t88.5 62t112 26.5z" />
    <glyph glyph-name="uni062F" unicode="&#x62f;" horiz-adv-x="1064" arabic-form="isolated" 
d="M574 -8q-76 0 -154 12t-146 34.5t-119 52.5l-53 31l63 106l53 -32q42 -25 100 -43t122 -27.5t129.5 -10t121.5 9.5q66 11 111 39t62 69q15 36 7.5 79.5t-37.5 88.5q-77 115 -132 198t-93 140.5t-61 92.5t-35.5 54t-17 25.5t-4.5 7.5l-33 52l104 66q8 -14 18.5 -29.5
t26.5 -40.5t41.5 -63.5t64 -97t93.5 -141t130 -196.5q48 -72 58.5 -145t-17.5 -139q-30 -71 -98 -117.5t-167 -63.5q-63 -12 -138 -12z" />
    <glyph glyph-name="uni0631" unicode="&#x631;" horiz-adv-x="735" arabic-form="isolated" 
d="M-91 -553v122h139q235 0 344 123q100 114 100 341v642h123v-642q0 -290 -143.5 -438t-423.5 -148h-139z" />
    <glyph glyph-name="uni0631.fina" unicode="&#x631;" horiz-adv-x="828" arabic-form="final" 
d="M874 0h-46q-62 0 -117.5 17t-100.5 49v-33q0 -290 -143.5 -438t-423.5 -148h-139v122h139q235 0 344 123q100 114 100 341v276v366h123v-358q0 -54 20 -91t51.5 -60t70 -33t76.5 -10h46v-123z" />
    <glyph glyph-name="uni0633" unicode="&#x633;" horiz-adv-x="2736" arabic-form="isolated" 
d="M2527 802q1 -3 8 -27t17 -61t21 -84t20.5 -96.5t16 -98t6.5 -88.5q0 -51 -9.5 -92.5t-25 -73.5t-34 -56t-36.5 -40q-44 -40 -100 -61.5t-119 -22.5v-1q-179 0 -278 99q-8 8 -15 17t-14 19q-11 -16 -23 -28.5t-23 -22.5q-46 -41 -104.5 -62.5t-123.5 -21.5q-163 0 -255 85
v-136q0 -226 -106 -348q-66 -77 -170 -114q-107 -40 -260 -40h-239q-144 0 -261.5 63t-190.5 179q-25 40 -43.5 84t-29.5 94q-24 102 -20 217q12 250 152 542l111 -53q-61 -126 -95.5 -243t-43 -221t9.5 -193.5t63 -161.5q56 -88 146.5 -136t201.5 -48h239q241 0 337 111
q76 88 76 268v726h123v-220q0 -196 77 -273q29 -30 72.5 -44.5t105.5 -14.5q37 0 74.5 12t68.5 38t50.5 68.5t19.5 104.5v329h123v-329q0 -220 240 -223v1q36 0 72.5 11.5t66 38t48.5 69t19 104.5q0 36 -6 80.5t-15.5 91t-20 90.5t-20 78.5t-15.5 56t-6 22.5l117 36v0z" />
    <glyph glyph-name="uni0633.init" unicode="&#x633;" horiz-adv-x="1778" arabic-form="initial" 
d="M-21 123h189q37 0 74.5 12t68.5 38t50.5 68.5t19.5 104.5v329h123v-329q0 -220 240 -223q37 0 74.5 12t68.5 38t50.5 68.5t19.5 104.5v329h123v-329q0 -220 240 -223v1q36 0 72.5 11.5t66 38t48.5 69t19 104.5q0 36 -6 80.5t-15.5 91t-20 90.5t-20 78.5t-15.5 56t-6 22.5
l117 36q1 -3 8 -27t17 -61t21 -84t20.5 -96.5t16 -98t6.5 -88.5q0 -51 -9.5 -92.5t-25 -73.5t-34 -56t-36.5 -40q-44 -40 -100 -61.5t-119 -22.5v-1q-179 0 -278 99q-8 8 -15 17t-14 19q-11 -16 -23 -28.5t-23 -22.5q-46 -41 -107 -62.5t-126 -21.5q-181 0 -280 99
q-8 8 -15 17t-14 19q-11 -16 -23 -28.5t-23 -22.5q-46 -41 -104.5 -62.5t-123.5 -21.5h-177v123z" />
    <glyph glyph-name="uni0633.medi" unicode="&#x633;" horiz-adv-x="1776" arabic-form="medial" 
d="M1746 0q-47 0 -91.5 7.5t-83.5 23.5t-71 42t-53 62q-11 -16 -23 -28.5t-23 -22.5q-46 -41 -102 -62.5t-121 -21.5q-52 0 -93.5 8.5t-75 25t-62 42t-53.5 59.5q-48 -65 -117.5 -100t-152.5 -35q-90 0 -151.5 25t-110.5 74q-8 8 -15 17t-14 19q-11 -16 -23 -28.5t-23 -22.5
q-46 -41 -104.5 -62.5t-123.5 -21.5h-86v123h98q37 0 74.5 12t68.5 38t50.5 68.5t19.5 104.5v329h123v-329q0 -110 51.5 -166t170.5 -57q37 0 73.5 12t65.5 38t47 68.5t18 104.5v329h123v-329q0 -110 52 -166t171 -57q37 0 74 12t66.5 38t48 68.5t18.5 104.5v329h123v-329
q0 -220 238 -223h53v-123h-54v0z" />
    <glyph glyph-name="uni0633.fina" unicode="&#x633;" horiz-adv-x="2919" arabic-form="final" 
d="M2891 0q-105 2 -180.5 33t-126.5 102q-48 -66 -119.5 -100.5t-154.5 -34.5q-105 0 -180.5 33t-126.5 102q-45 -73 -118 -104t-156 -31q-163 0 -255 85v-136q0 -226 -106 -348q-66 -77 -170 -114q-107 -40 -260 -40h-239q-144 0 -261.5 63t-190.5 179q-25 40 -43.5 84
t-29.5 94q-24 102 -20 217q12 250 152 542l111 -53q-61 -126 -95.5 -243t-43 -221t9.5 -193.5t63 -161.5q56 -88 146.5 -136t201.5 -48h239q241 0 337 111q76 88 76 268v726h123v-220q0 -196 77 -273q29 -30 72.5 -44.5t105.5 -14.5q37 0 74.5 12t68.5 38t50.5 68.5
t19.5 104.5v329h123v-329q0 -110 62.5 -165.5t182.5 -57.5q37 0 74.5 12t68.5 38t50.5 68.5t19.5 104.5v329h123v-329q0 -110 62.5 -165.5t182.5 -57.5h56v-123h-56v0z" />
    <glyph glyph-name="uni0635" unicode="&#x635;" horiz-adv-x="2793" arabic-form="isolated" 
d="M2292 854q59 0 109 -20t90.5 -54.5t71.5 -80.5t51.5 -99t31 -110t10.5 -113q0 -67 -14.5 -118t-37 -89t-50.5 -64t-55 -43q-34 -21 -68.5 -33.5t-65.5 -19t-56.5 -8.5t-40.5 -2h-572q-62 0 -117 17t-100 49v-118q0 -73 -14 -143.5t-46.5 -131.5t-85.5 -109t-131 -76
q-108 -38 -259 -38h-239q-146 0 -265 63.5t-193 181.5q-55 88 -76.5 187.5t-17.5 205.5q5 124 43 257.5t107 279.5l111 -53q-60 -125 -94 -241t-42.5 -219t10 -192t63.5 -160q57 -90 149 -139t205 -49h239q108 0 186 20t128.5 65t74.5 116.5t24 174.5v724h123v-356
q0 -68 31 -109.5t76 -61.5q40 61 77.5 125t77.5 127.5t83.5 125.5t95.5 121q94 107 185.5 158.5t186.5 51.5zM2268 123q20 0 47.5 3t57 12t58 26t51.5 45.5t37 69.5t14 98q0 86 -21 152.5t-55.5 111.5t-77.5 68t-87 23q-67 0 -136 -42t-144 -127q-35 -40 -69 -86
t-69.5 -100.5t-74 -117.5t-82.5 -136h551z" />
    <glyph glyph-name="uni0635.init" unicode="&#x635;" horiz-adv-x="1796" arabic-form="initial" 
d="M1332 857q65 0 116.5 -20.5t91.5 -55.5t68.5 -82t47.5 -100.5t27.5 -110t8.5 -111.5q0 -66 -14 -117t-35.5 -89.5t-48.5 -64.5t-53 -43q-32 -21 -64.5 -33t-62.5 -19t-55.5 -9t-43.5 -2h-579q-67 0 -127 19.5t-105 57.5q-27 22 -45 46q-4 -5 -8 -9.5t-8 -9.5
q-98 -104 -299 -104h-155v123h155q149 0 209 65q43 46 43 124v363h123v-358q0 -67 29.5 -108t73.5 -62l67 109q59 97 125 199t143 189q95 108 187 160.5t188 52.5zM1315 123q19 0 45 3t54.5 12t56 26t49.5 45.5t35.5 69.5t13.5 98q0 58 -11.5 121.5t-38.5 115.5t-72.5 86
t-114.5 34q-133 0 -283 -171q-72 -81 -135 -179t-120 -192q-11 -17 -21.5 -34.5t-21.5 -34.5h564z" />
    <glyph glyph-name="uni0635.medi" unicode="&#x635;" horiz-adv-x="1852" arabic-form="medial" 
d="M736 0q-67 0 -127 19.5t-105 57.5q-27 22 -45 46q-4 -5 -8 -9.5t-8 -9.5q-98 -104 -299 -104h-155v123h155q149 0 209 65q43 46 43 124v363h123v-358q0 -67 29.5 -108t73.5 -62l67 109q59 97 125 199t143 189q95 108 187 160.5t188 52.5q65 0 116.5 -20.5t91.5 -55.5
t68.5 -82t47.5 -100.5t27.5 -110t8.5 -111.5q0 -90 -24.5 -152t-58.5 -102h262v-123h-1135zM794 192q-11 -17 -21.5 -34.5t-21.5 -34.5h576q20 1 46 5t53 14t52.5 27.5t45.5 45.5t32.5 67.5t12.5 94.5q0 58 -11.5 121.5t-38.5 115.5t-72.5 86t-114.5 34q-133 0 -283 -171
q-72 -81 -135 -179t-120 -192z" />
    <glyph glyph-name="uni0635.fina" unicode="&#x635;" horiz-adv-x="2812" arabic-form="final" 
d="M2292 854q59 0 109 -20t90.5 -54.5t71.5 -80.5t51.5 -99t31 -110t10.5 -113q0 -91 -25.5 -152.5t-60.5 -101.5h261v-123h-549h-14h-572q-62 0 -117 17t-100 49v-118q0 -73 -14 -143.5t-46.5 -131.5t-85.5 -109t-131 -76q-108 -38 -259 -38h-239q-146 0 -265 63.5
t-193 181.5q-55 88 -76.5 187.5t-17.5 205.5q5 124 43 257.5t107 279.5l111 -53q-60 -125 -94 -241t-42.5 -219t10 -192t63.5 -160q57 -90 149 -139t205 -49h239q108 0 186 20t128.5 65t74.5 116.5t24 174.5v724h123v-356q0 -68 31 -109.5t76 -61.5q40 61 77.5 125
t77.5 127.5t83.5 125.5t95.5 121q94 107 185.5 158.5t186.5 51.5zM2268 123q20 0 47.5 3t57 12t58 26t51.5 45.5t37 69.5t14 98q0 86 -21 152.5t-55.5 111.5t-77.5 68t-87 23q-67 0 -136 -42t-144 -127q-35 -40 -69 -86t-69.5 -100.5t-74 -117.5t-82.5 -136h551z" />
    <glyph glyph-name="uni0637" unicode="&#x637;" horiz-adv-x="1525" arabic-form="isolated" 
d="M1297 718q81 -120 81 -340q0 -67 -16.5 -118.5t-42 -90t-57 -64.5t-61.5 -43q-38 -21 -76.5 -33.5t-72 -19t-59 -8t-37.5 -1.5h-867v123h236q22 35 45 73.5t47 80.5l24 42v1107h123v-907q24 36 49.5 70t52.5 66q173 204 356 204q90 0 159.5 -36t115.5 -105zM956 123
q12 0 39.5 2t60.5 10.5t68.5 24.5t64.5 44.5t47.5 70.5t18.5 103q0 181 -60 273q-57 85 -173 85q-49 0 -96 -22.5t-91.5 -61t-86 -89.5t-80.5 -109t-75.5 -119t-69.5 -119q-27 -48 -54 -93h487z" />
    <glyph glyph-name="uni0637.init" unicode="&#x637;" horiz-adv-x="1413" arabic-form="initial" 
d="M1168 718q81 -120 81 -340q0 -67 -16.5 -118.5t-42 -90t-57 -64.5t-61.5 -43q-38 -21 -76.5 -33.5t-72 -19t-59 -8t-37.5 -1.5h-862v123h231q22 35 45 73.5t47 80.5l24 42v1107h123v-907q24 36 49.5 70t52.5 66q173 204 356 204q90 0 159.5 -36t115.5 -105zM827 123
q13 0 40 2t60 10.5t68.5 24.5t64.5 44.5t47.5 70.5t18.5 103q0 181 -60 273q-57 85 -173 85q-49 0 -96 -22.5t-91.5 -61t-86 -89.5t-80.5 -109t-75.5 -119t-69.5 -119q-27 -48 -54 -93h487z" />
    <glyph glyph-name="uni0637.medi" unicode="&#x637;" horiz-adv-x="1451" arabic-form="medial" 
d="M1464 0h-1472v123h250q22 35 45 73.5t47 80.5l24 42v1107h123v-907q24 36 49.5 70t52.5 66q173 204 356 204q90 0 159.5 -36t115.5 -105q81 -120 81 -340q0 -90 -28 -152.5t-68 -102.5h266zM873 123q13 0 40 2t60 10.5t68.5 24.5t64.5 44.5t47.5 70.5t18.5 103
q0 181 -60 273q-57 85 -173 85q-49 0 -96 -22.5t-91.5 -61t-86 -89.5t-80.5 -109t-75.5 -119t-69.5 -119q-27 -48 -54 -93h487z" />
    <glyph glyph-name="uni0637.fina" unicode="&#x637;" horiz-adv-x="1598" arabic-form="final" 
d="M1613 0h-1501v123h238q22 35 45 73.5t47 80.5l24 42v1107h123v-907q24 36 49.5 70t52.5 66q173 204 356 204q90 0 159.5 -36t115.5 -105q81 -120 81 -340q0 -90 -28 -152.5t-68 -102.5h307zM981 123q12 0 39.5 2t60.5 10.5t68.5 24.5t64.5 44.5t47.5 70.5t18.5 103
q0 181 -60 273q-57 85 -173 85q-50 0 -96.5 -22.5t-91 -61t-86 -89.5t-80.5 -109t-75.5 -119t-69.5 -119q-27 -48 -54 -93h487z" />
    <glyph glyph-name="uni0639" unicode="&#x639;" horiz-adv-x="1384" arabic-form="isolated" 
d="M615 361q-62 0 -132.5 -23t-131.5 -71.5t-101 -123t-40 -176.5q0 -76 21.5 -134.5t58 -102.5t86 -74.5t106 -49t117 -27t119.5 -8.5h475v-123h-475q-118 0 -231 29.5t-202 92t-143.5 161t-54.5 236.5q0 111 47 212.5t135 175.5q73 61 165.5 95t186.5 34
q-14 10 -26.5 19.5t-24.5 20.5q-35 30 -63.5 66.5t-48.5 77t-31.5 85t-11.5 89.5q0 77 33.5 146t88.5 121.5t126 83t147 30.5q47 0 90.5 -10.5t89.5 -30t95.5 -46.5t108.5 -61l-61 -107q-41 23 -83.5 46.5t-84 42.5t-81.5 31t-74 12q-48 0 -96.5 -19.5t-87.5 -54t-63.5 -82
t-24.5 -102.5q0 -60 29.5 -119.5t83.5 -106.5q67 -59 166 -92t225 -40l190 -1v-123l-194 1h-423v0z" />
    <glyph glyph-name="uni0639.init" unicode="&#x639;" horiz-adv-x="1182" arabic-form="initial" 
d="M1026 123v-123h-198h-841v123h413q-42 27 -77 65t-59.5 83t-38.5 96t-14 105q0 79 32.5 149t87.5 122.5t127 83.5t150 31q58 0 107.5 -14t95 -35.5t89 -48.5t88.5 -53l-62 -106q-39 23 -78 47t-78 43.5t-79.5 31.5t-82.5 12q-49 0 -98 -19.5t-88 -54t-63.5 -83
t-24.5 -106.5q0 -19 3.5 -45.5t15 -56.5t32.5 -62t56 -62q32 -27 76.5 -49.5t96 -39t107 -25.5t111.5 -9h194z" />
    <glyph glyph-name="uni0639.medi" unicode="&#x639;" horiz-adv-x="1264" arabic-form="medial" 
d="M900 0q-11 0 -25.5 3t-36 13t-52 28.5t-72.5 48.5q-14 10 -29 21.5t-31 23.5q-126 -69 -277 -103.5t-337 -34.5h-61v123h61q165 0 289.5 27.5t218.5 72.5q-15 12 -30 24.5t-31 26.5q-57 48 -110 95t-93.5 83.5t-65.5 59.5l-25 23l-20 19v27q0 133 73 204q76 72 223 72
h337q41 0 79 -10t73 -29q70 -41 102 -108q28 -59 17.5 -121.5t-57.5 -118.5q-55 -68 -117 -134.5t-140 -125.5l10 -8q34 -25 58 -40.5t39 -23.5t22.5 -11t9.5 -4h369v-123h-371zM297 607q16 -15 42.5 -39.5t60.5 -55t74 -65t82 -70.5q29 -25 55 -47t51 -42q86 59 148.5 127
t115.5 133q8 10 15.5 22t11.5 26t3.5 29.5t-7.5 31.5q-17 35 -56 56t-87 21h-337q-49 0 -81.5 -8.5t-52 -25t-28 -40t-10.5 -53.5z" />
    <glyph glyph-name="uni0639.fina" unicode="&#x639;" horiz-adv-x="1364" arabic-form="final" 
d="M711 364q51 26 98.5 53t88.5 55t74 58.5t56 63.5q25 38 22 73.5t-24 63t-55 44t-69 16.5h-338q-38 -1 -68.5 -7.5t-52.5 -21t-35 -38t-16 -58.5q11 -11 31 -30.5t46 -45t56.5 -54.5t62.5 -59t63.5 -59t59.5 -54zM902 914q38 0 74 -10t67.5 -29t57.5 -45t43 -59
q32 -60 28 -124.5t-42 -121.5q-26 -38 -60.5 -71.5t-75.5 -64t-87.5 -58t-96.5 -54.5q21 -19 40.5 -35t38.5 -30q36 -29 60 -46t40 -26.5t23.5 -13t10.5 -4.5h359v-122h-362q-11 0 -26 3.5t-37.5 14t-53.5 31t-75 54.5q-29 23 -63.5 51t-72.5 62q-51 -27 -107.5 -56
t-111.5 -62t-104.5 -70.5t-87.5 -82.5t-60.5 -98t-22.5 -116q0 -71 21.5 -125.5t59.5 -95.5t89.5 -69t111.5 -45t125.5 -24.5t131.5 -7.5h445v-123h-445q-83 -2 -164.5 9.5t-155 36.5t-136 64.5t-108.5 94.5t-72 126t-26 159q0 109 45 195.5t118.5 155.5t166.5 123.5
t189 98.5l-2 2q-59 54 -114 106t-97.5 93.5t-68 67t-26.5 25.5l-18 43q1 134 79.5 203.5t216.5 69.5h338z" />
    <glyph glyph-name="uni0643.init" unicode="&#x643;" horiz-adv-x="1152" arabic-form="initial" 
d="M1151 1460l-839 -369q66 -56 177 -158.5t254 -254.5q126 -133 172 -259q24 -66 25 -126.5t-21 -111.5q-11 -25 -34.5 -56.5t-67 -59t-109.5 -46.5t-162 -19h-569v123h569q113 0 182 33q59 28 78 74q28 65 -12.5 161t-140.5 203q-107 114 -197.5 200.5t-156.5 145
t-103 88.5t-38 30l13 105l930 410z" />
    <glyph glyph-name="uni0643.medi" unicode="&#x643;" horiz-adv-x="1248" arabic-form="medial" 
d="M802 436q60 -81 108 -140t98 -97.5t110 -57t145 -18.5v-123q-95 0 -166.5 20t-129 57.5t-106.5 90t-100 118.5q-4 -22 -10.5 -41t-14.5 -36q-29 -63 -79.5 -103.5t-112.5 -64t-131 -32.5t-136 -9h-296v123h296q48 2 100.5 7.5t100.5 20.5t87 42t61 71q17 34 18 71.5
t-9.5 75.5t-30 74.5t-43.5 68.5q-40 54 -73 98.5t-62.5 84.5t-56.5 76.5t-55.5 75t-59.5 80.5t-68 92h1l24 92l939 423l50 -112l-869 -392q115 -158 232 -315.5t239 -320.5z" />
    <glyph glyph-name="uni0643" unicode="&#x643;" horiz-adv-x="2057" arabic-form="isolated" 
d="M1903 410q0 -147 -70 -238q-65 -85 -197 -126q-59 -18 -130.5 -27.5t-153.5 -14t-173 -5t-189 -0.5h-38t-38 -1h-79q-92 0 -181 4t-169.5 18t-148 42.5t-116.5 76.5q-91 91 -91 236q0 50 11 105.5t24 102.5t24.5 79t12.5 35l115 -44l-5 -13t-12 -35t-15.5 -50t-15.5 -59
t-11.5 -62.5t-4.5 -58.5q0 -95 55 -149q36 -36 93.5 -57t128 -31.5t150.5 -13.5t160 -3h75q19 1 38 1h38q94 0 181.5 0.5t165.5 4.5t144 12.5t119 24.5q96 29 138 86.5t42 159.5v1017h123v-1017zM1123 975q-90 -54 -138 -99q-27 -26 -39 -46.5t-6 -33.5q2 -8 18 -10.5t36 -2
t38.5 2.5t24.5 3q29 2 55.5 3t54.5 -1q34 -5 56 -19.5t32.5 -34.5t9 -44t-15.5 -47q-17 -29 -53.5 -52.5t-82 -41.5t-96.5 -31.5t-98 -22.5l-15 81q64 15 115.5 29t87.5 28.5t55 30t19 33.5q-3 9 -19 11.5t-35.5 1.5t-38 -3t-25.5 -3q-26 -2 -52.5 -3t-52.5 1q-54 7 -77 33
t-23 60.5t19.5 71.5t51.5 66q28 26 65.5 53t87.5 56z" />
    <glyph glyph-name="uni0643.fina" unicode="&#x643;" horiz-adv-x="2145" arabic-form="final" 
d="M1050 121q126 0 225 0.5t176.5 4.5t135.5 12.5t101 23.5q38 13 59 32.5t32 45t15 58t7 72.5v1058h123v-1019v-11v-14v-20.5v-30.5q0 -52 18.5 -91t49.5 -65.5t69.5 -40t79.5 -13.5h31v-123h-31q-67 0 -127 22.5t-108 64.5q-26 24 -45 51q-45 -60 -132 -92
q-50 -18 -111 -28t-141 -14.5t-184.5 -5t-242.5 -0.5h-215q-92 0 -181 4t-169.5 18t-148 42.5t-116.5 76.5q-91 91 -91 236q0 50 11 105.5t24 102.5t24.5 79t12.5 35l115 -44l-5 -13t-12 -35t-15.5 -50t-15.5 -59t-11.5 -62.5t-4.5 -58.5q0 -95 55 -149q36 -36 93.5 -57
t128 -31.5t150.5 -13.5t160 -3h211zM1123 975q-90 -54 -138 -99q-27 -26 -39 -46.5t-6 -33.5q2 -8 18 -10.5t36 -2t38.5 2.5t24.5 3q29 2 55.5 3t54.5 -1q34 -5 56 -19.5t32.5 -34.5t9 -44t-15.5 -47q-17 -29 -53.5 -52.5t-82 -41.5t-96.5 -31.5t-98 -22.5l-15 81
q64 15 115.5 29t87.5 28.5t55 30t19 33.5q-3 9 -19 11.5t-35.5 1.5t-38 -3t-25.5 -3q-26 -2 -52.5 -3t-52.5 1q-54 7 -77 33t-23 60.5t19.5 71.5t51.5 66q28 26 65.5 53t87.5 56z" />
    <glyph glyph-name="uni0644" unicode="&#x644;" horiz-adv-x="1335" arabic-form="isolated" 
d="M1183 -48q0 -115 -25.5 -200.5t-79.5 -148.5q-40 -45 -88.5 -74.5t-103 -47.5t-115 -25t-123.5 -7h-72q-125 0 -228.5 55.5t-167.5 158.5q-44 69 -64.5 155t-16.5 183q4 105 35.5 219t90.5 237l111 -53q-100 -210 -113.5 -383t61.5 -293q47 -75 123 -115.5t169 -40.5h72
q122 0 205 27.5t131 83.5q39 45 57.5 111t18.5 158v1475h123v-1475z" />
    <glyph glyph-name="uni0644.init" unicode="&#x644;" horiz-adv-x="577" arabic-form="initial" 
d="M444 362q0 -162 -93 -252q-113 -110 -362 -110v123q110 0 175.5 20.5t100.5 54.5t45.5 77t10.5 87l1 1065h123z" />
    <glyph glyph-name="uni0644.medi" unicode="&#x644;" horiz-adv-x="646" arabic-form="medial" 
d="M668 123v-123h-22q-85 0 -156 37t-116 106q-28 -39 -65.5 -66t-85.5 -43.5t-107 -24.5t-129 -9v123q110 0 175 20.5t99 54.5t44 77t10 87v1065h123v-1076q0 -51 15 -93t42.5 -72t65.5 -46.5t85 -16.5h22z" />
    <glyph glyph-name="uni0644.fina" unicode="&#x644;" horiz-adv-x="1416" arabic-form="final" 
d="M1433 123v-123h-39q-38 0 -67 5t-52.5 14.5t-43.5 23t-41 30.5v-122q0 -115 -25.5 -200.5t-79.5 -148.5q-41 -46 -89 -75.5t-102.5 -46.5t-114.5 -24t-124 -8h-72q-125 0 -228.5 55.5t-167.5 158.5q-44 69 -64.5 155t-16.5 183q4 105 35.5 219t90.5 237l111 -53
q-100 -210 -113.5 -383t61.5 -293q47 -75 123 -115.5t169 -40.5h72q122 0 205 27.5t131 83.5q39 45 57.5 111t18.5 158v1476h123v-1066q0 -53 15 -96.5t42 -75t64.5 -49t82.5 -17.5h39z" />
    <glyph glyph-name="uni0645" unicode="&#x645;" horiz-adv-x="1352" arabic-form="isolated" 
d="M120 373l113 70q24 -14 85.5 -47t146.5 -77q25 130 51.5 218.5t61.5 150.5q50 90 123 137.5t176 47.5q89 0 158 -43.5t116.5 -112t72 -153t24.5 -166.5q0 -112 -27.5 -189.5t-71.5 -125.5t-99.5 -69t-112.5 -21q-9 0 -23 1.5t-35.5 7.5t-52.5 16.5t-74 28.5
q-30 12 -72.5 31.5t-90.5 42.5t-99 48t-97.5 49t-85.5 44.5t-64 34.5v-1056h-123v1132zM580 262q106 -52 173.5 -81.5t107 -44t56 -18t20.5 -3.5q52 0 88 23.5t58.5 62.5t32 90t9.5 107q0 63 -17 126.5t-49 113.5t-78 81.5t-104 31.5q-59 0 -103.5 -25t-79.5 -83
t-62.5 -151.5t-51.5 -229.5z" />
    <glyph glyph-name="uni0645.init" unicode="&#x645;" horiz-adv-x="1148" arabic-form="initial" 
d="M718 76q31 0 62.5 16t56 52t40 94.5t15.5 142.5q0 60 -19.5 121.5t-54.5 109.5q-10 14 -25.5 31t-36.5 32t-47 25.5t-56 10.5q-65 0 -109 -23.5t-74.5 -67.5t-52.5 -107.5t-44 -143.5q-10 -37 -20 -72t-22 -68q64 -32 119 -61t102 -50t88 -32.5t78 -9.5zM653 834
q76 0 143.5 -38.5t120.5 -111.5q47 -64 72.5 -143t25.5 -160q0 -52 -7 -103.5t-21.5 -99.5t-38 -89t-56.5 -71t-76 -47.5t-98 -17.5q-50 0 -98 12.5t-100.5 34.5t-111.5 52t-130 66q-77 -118 -214 -118h-89v123h88h1q39 0 66.5 16.5t49.5 53.5q24 39 41 93.5t34 114.5
q20 74 43.5 147t65.5 135q103 151 289 151z" />
    <glyph glyph-name="uni0645.medi" unicode="&#x645;" horiz-adv-x="1183" arabic-form="medial" 
d="M1184 0q-76 0 -130.5 18.5t-96.5 56.5q-20 17 -35 38q-17 -36 -42.5 -65.5t-57.5 -50.5t-68 -32.5t-74 -11.5q-49 0 -98 12t-102 33.5t-112 52t-128 67.5q-79 -118 -215 -118h-49v123h49q39 0 66.5 16.5t50.5 53.5q24 39 40.5 93.5t33.5 114.5q10 37 20.5 74t23.5 73
t28.5 70t36.5 65q102 151 290 151q75 0 143 -38.5t120 -111.5q48 -64 73 -143t25 -160q0 -157 64 -216q24 -22 57.5 -32t86.5 -10h21v-123h-21zM680 76q31 0 62 16t56 52t40 94.5t15 142.5q0 60 -19.5 121.5t-54.5 109.5q-10 14 -25.5 31t-36.5 32t-46.5 25.5t-55.5 10.5
q-66 0 -110 -23.5t-74.5 -67.5t-52.5 -107.5t-43 -143.5q-11 -37 -21 -72t-21 -68q64 -34 118.5 -62.5t102 -49t89 -31.5t77.5 -10z" />
    <glyph glyph-name="uni0645.fina" unicode="&#x645;" horiz-adv-x="1510" arabic-form="final" 
d="M1534 123v-123h-29q-57 2 -106 17q-21 6 -42.5 16t-40 24t-33.5 33t-23 45q-23 -38 -52 -65t-61.5 -44t-67.5 -25t-70 -8q-9 0 -23 1.5t-35.5 7.5t-52.5 16.5t-74 28.5q-30 12 -72.5 31.5t-90.5 42.5t-99 48t-97.5 49t-85.5 44.5t-64 34.5v-1056h-123v1132l113 70
q24 -14 85.5 -47t146.5 -77q25 130 51.5 218.5t61.5 150.5q47 84 122.5 134.5t176.5 50.5q89 0 158 -43.5t116.5 -112t72 -153t24.5 -166.5q0 -164 72 -233q15 -14 31 -22t31 -12.5t28.5 -6t22.5 -1.5h29zM1132 168q32 35 48.5 93.5t16.5 136.5q0 63 -17 126.5t-49 113.5
t-78 81.5t-104 31.5q-59 0 -103.5 -25t-79.5 -83t-62.5 -151.5t-51.5 -229.5q106 -52 173.5 -81.5t107 -44t56 -18t20.5 -3.5q26 0 60 10.5t63 42.5z" />
    <glyph glyph-name="uni0647" unicode="&#x647;" horiz-adv-x="1042" arabic-form="isolated" 
d="M523 0q-85 0 -159.5 27.5t-130 75.5t-88 112.5t-32.5 137.5q0 70 19 129t47.5 108.5t61.5 90t60 73.5q15 18 33 38t36 39.5t35.5 37t31.5 32.5l-78 87l90 82q1 0 24.5 -25.5t60 -65.5t80.5 -89t85 -97q50 -57 93 -111t74.5 -107t49.5 -106.5t18 -111.5
q0 -75 -32.5 -141.5t-94.5 -117.5q-57 -48 -130 -73t-154 -25zM520 810q-14 -14 -30 -30.5t-32.5 -34t-32 -35t-28.5 -33.5q-24 -29 -52.5 -63.5t-52.5 -75t-40 -87t-16 -98.5q0 -45 21 -86.5t60 -73.5q42 -34 95.5 -52t110.5 -18q60 0 112.5 18.5t91.5 50t61.5 74.5
t22.5 91q0 38 -13 76.5t-38.5 81t-64 91t-89.5 107.5z" />
    <glyph glyph-name="uni0647.init" unicode="&#x647;" horiz-adv-x="1492" arabic-form="initial" 
d="M623 191q46 17 88.5 43.5t74 62.5t50.5 82t19 102q0 58 -20.5 106t-53.5 82t-74.5 52.5t-83.5 18.5q-72 0 -121 -21.5t-80 -56t-44.5 -78.5t-13.5 -88q0 -65 26.5 -115.5t83.5 -96.5q31 -25 68.5 -47.5t80.5 -45.5zM857 1030q80 -85 149 -158t126 -137.5t101.5 -121
t76.5 -107.5q32 -52 52 -101t26 -97.5t-4 -98t-38 -102.5q-22 -42 -58 -74.5t-80.5 -54.5t-95.5 -33.5t-102 -11.5q-53 0 -103.5 10.5t-99.5 28t-97 40t-96 46.5q-95 -29 -212.5 -43.5t-259.5 -14.5h-166v123h166q178 0 313 24q-16 10 -30 20t-27 21q-77 60 -117 135.5
t-40 172.5q0 82 28.5 150t79.5 116t121 74.5t153 26.5q75 0 140 -32t112.5 -85.5t75 -122.5t27.5 -142q0 -119 -55 -208.5t-158 -149.5q54 -29 117 -48t129 -19q43 0 79.5 9t65.5 24t49.5 34.5t31.5 40.5q18 33 25 64.5t3 64.5t-18.5 69.5t-41.5 78.5q-59 94 -170 216.5
t-267 287.5z" />
    <glyph glyph-name="uni0647.medi" unicode="&#x647;" horiz-adv-x="1260" arabic-form="medial" 
d="M1284 123v-123h-196q-38 0 -71.5 -8t-61.5 -22.5t-49 -35.5t-32 -46q-28 -62 0.5 -144t111.5 -176l-38 -102q-21 -2 -41.5 -3.5t-40.5 -1.5q-94 0 -187 29q-60 20 -114.5 49.5t-104.5 71.5q-47 39 -86.5 86t-70.5 98t-52.5 105.5t-31.5 108.5q-63 -5 -124 -7t-112 -2v123
q49 0 107.5 2t118.5 7q-3 172 27 312q41 183 135 288q101 113 249 121q159 9 258 -84q37 -35 58.5 -75.5t32 -78t13.5 -67.5t3 -45q0 -164 -120 -279q-48 -46 -115 -83t-154 -64q-60 -20 -124 -33t-130 -22q18 -86 70 -169.5t127 -146.5q23 -20 52.5 -39.5t64 -36t75 -28.5
t86.5 -16q-47 74 -66 143q-32 114 11 210q40 89 133 138q87 46 193 46h196zM462 650q-33 -36 -58 -88t-41.5 -116.5t-24.5 -140t-6 -160.5q59 8 116 20t111 29q154 49 228.5 125t74.5 184q0 19 -3.5 42.5t-12 47.5t-21.5 46.5t-32 40.5q-26 26 -64 38.5t-93 12.5
q-57 0 -98.5 -21.5t-75.5 -59.5z" />
    <glyph glyph-name="uni0647.fina" unicode="&#x647;" horiz-adv-x="1250" arabic-form="final" 
d="M1282 0h-20q-79 0 -147.5 19t-128.5 56q-69 44 -119 110q-22 29 -39 63t-30 72q-31 -63 -77.5 -114.5t-114.5 -77.5q-87 -35 -173.5 -32t-157.5 37.5t-121.5 97.5t-65.5 148q-17 103 18.5 196t110.5 167q72 72 178 127t241 91l-27 134l122 34q29 -124 50.5 -217
t38.5 -166q12 -51 22 -96.5t20.5 -89t21.5 -86.5t24 -91q16 -59 42 -100.5t58.5 -70.5t67.5 -46.5t69.5 -26.5t64.5 -12t52 -3h20v-123zM671 843q-118 -32 -209.5 -78.5t-152 -104t-86.5 -123.5t-14 -136q10 -57 48 -98t89 -62.5t106.5 -22.5t99.5 20q57 28 92 67.5t54 82.5
t25 85.5t5.5 76.5t-4 55.5t-3.5 22.5q-11 48 -18.5 81t-13 57t-10 42t-8.5 35z" />
    <glyph glyph-name="uni0648" unicode="&#x648;" horiz-adv-x="1024" arabic-form="isolated" 
d="M777 123v249q-2 79 -14.5 146.5t-42.5 117t-80 77t-128 27.5q-77 0 -128 -28t-81.5 -77.5t-43 -117t-12.5 -145.5q0 -69 24 -116.5t67 -77t100.5 -42.5t125.5 -13h213zM512 863q103 -4 177 -41t120.5 -101.5t68.5 -153t22 -195.5v-249v-123q3 -143 -44 -247t-134 -172
t-207.5 -100.5t-263.5 -32.5h-57v123h57q121 3 217.5 24t164.5 70t105 130.5t39 204.5h-213q-93 -2 -173 21t-139.5 69.5t-93.5 117t-34 164.5q0 106 21.5 194.5t68 153t120 102t178.5 41.5z" />
    <glyph glyph-name="uni0648.fina" unicode="&#x648;" horiz-adv-x="1044" arabic-form="final" 
d="M777 123v249q-2 79 -14.5 146.5t-42.5 117t-80 77t-128 27.5q-77 0 -128 -28t-81.5 -77.5t-43 -117t-12.5 -145.5q0 -69 24 -116.5t67 -77t100.5 -42.5t125.5 -13h213zM512 863q103 -4 177 -41t120.5 -101.5t68.5 -153t22 -195.5v-249h170v-123h-170q3 -143 -44 -247
t-134 -172t-207.5 -100.5t-263.5 -32.5h-57v123h57q121 3 217.5 24t164.5 70t105 130.5t39 204.5h-213q-93 -2 -173 21t-139.5 69.5t-93.5 117t-34 164.5q0 106 21.5 194.5t68 153t120 102t178.5 41.5z" />
    <glyph glyph-name="uni0649" unicode="&#x649;" horiz-adv-x="1671" arabic-form="isolated" 
d="M1356 871q49 0 98.5 -7t100.5 -22l-34 -118q-84 24 -164 24q-97 0 -182.5 -33t-151.5 -98q-78 -76 -109.5 -179t-11.5 -212q16 -5 51.5 -14.5t81.5 -21.5t97.5 -26t100 -27t88.5 -24t64 -17q40 -11 63.5 -26t34.5 -33t14 -39t3 -44q0 -34 -5 -78t-16.5 -90.5t-31 -91
t-48.5 -79.5q-40 -49 -87.5 -81t-102 -51t-115 -26.5t-127.5 -7.5h-247q-71 -1 -138 15.5t-127 49t-110.5 79t-88.5 106.5q-55 88 -77.5 188t-17.5 206q9 247 148 535l111 -53q-60 -124 -93.5 -239.5t-41 -218.5t11 -192t63.5 -161q58 -92 151.5 -142t208.5 -50h247
q123 0 202 29t130 85q25 27 41.5 62.5t26 74t12 77t-0.5 71.5l-579 156l-9 34q-20 75 -19.5 149.5t19.5 144.5t56 133.5t91 116.5q41 40 89.5 71.5t102.5 52.5t111.5 32t115.5 10z" />
    <glyph glyph-name="uni0649.fina" unicode="&#x649;" horiz-adv-x="1781" arabic-form="final" 
d="M383 574q-61 -126 -95.5 -243t-43 -221t10 -193t63.5 -161q56 -89 146.5 -137t202.5 -48h249q48 0 102.5 4t109 14.5t105 27.5t89 42t61.5 59.5t23 80.5q0 31 -7 56.5t-26 46t-53 36.5t-87 28t-128.5 20.5t-177.5 13.5l3 123h864v-123h-346q42 -41 61 -89t19 -112
q0 -67 -25 -119.5t-69 -91.5t-103 -65.5t-127 -43t-141.5 -24t-146.5 -7.5h-249q-144 0 -262 63t-191 179q-69 112 -87.5 231t-2.5 239t57 238t92 229z" />
    <glyph glyph-name="uni066E.init" unicode="&#x66e;" horiz-adv-x="671" 
d="M493 804q10 -43 22 -95t21.5 -107.5t16.5 -112.5t9 -109q1 -71 -20.5 -139.5t-62.5 -122t-100.5 -86t-133.5 -32.5h-260v123h260q48 3 84.5 25t61 57.5t37 80t11.5 91.5q-1 48 -7.5 100t-16 103t-20.5 99t-21 89l119 36v0z" />
    <glyph glyph-name="uni066E.medi" unicode="&#x66e;" horiz-adv-x="782" 
d="M817 123v-123h-70q-67 0 -127 20t-105 57q-27 22 -45 46q-51 -64 -128 -93t-187 -30h-188v123h188q59 2 105 11t78 31t49.5 58.5t19.5 93.5v359h123v-359q0 -54 20 -91t51 -60t69.5 -33t76.5 -10h70z" />
    <glyph glyph-name="uni066E.fina" unicode="&#x66e;" horiz-adv-x="2241" 
d="M2262 123v-123h-46q-67 0 -127 22.5t-108 64.5q-26 24 -45 51q-45 -60 -132 -92q-50 -18 -117 -28t-155 -14.5t-198.5 -5t-248.5 -0.5q-103 0 -195.5 0.5t-174 4.5t-152.5 12.5t-131 23.5q-138 36 -209 111q-80 86 -80 224q0 49 9 105.5t19.5 106t19.5 83.5t10 37
l118 -34q0 -1 -4 -15t-10 -38t-12.5 -54.5t-12.5 -63.5t-10 -66t-4 -61q0 -44 11 -78.5t35 -60.5t61 -45t89 -32q55 -14 123 -21.5t147 -11t168 -4t185 -0.5q126 0 231.5 0.5t190 4.5t149 12.5t107.5 23.5q34 12 54.5 29.5t33.5 43.5q11 23 17 55.5t8 79.5v306h123v-267v-11
v-14v-20.5v-30.5q0 -52 18.5 -91t49.5 -65.5t69.5 -40t79.5 -13.5h46z" />
    <glyph glyph-name="uni066F.init" unicode="&#x66f;" horiz-adv-x="1036" 
d="M575 473q31 0 62.5 2t60.5 5.5t55 7.5t45 7q-1 44 -5 95.5t-14 104t-28.5 101t-48.5 86.5t-73.5 60.5t-103.5 22.5q-63 0 -109.5 -23t-76.5 -60t-44.5 -85t-14.5 -97q0 -68 22.5 -111.5t62.5 -69t94 -36t116 -10.5zM525 1088q84 -1 146.5 -29t106.5 -75.5t72 -110.5
t43.5 -134t21.5 -146.5t6 -146.5q0 -131 -39.5 -217t-112 -137t-174.5 -71.5t-227 -20.5h-387v123h387q88 5 161 12.5t127.5 31.5t89.5 71t47 132q-42 -7 -100 -13.5t-118 -6.5q-94 0 -171 20.5t-132 63.5t-85 109t-30 157q0 79 26.5 150.5t74.5 125t116 84t151 28.5z" />
    <glyph glyph-name="uni066F.medi" unicode="&#x66f;" horiz-adv-x="1084" 
d="M567 200q21 8 40.5 17t37.5 20q30 17 61 40.5t56.5 53.5t41.5 68t16 83q0 48 -17 95t-49 84t-77.5 60t-103.5 23q-61 0 -110 -18.5t-84 -53t-54 -82.5t-19 -108q0 -48 18.5 -87t48 -71t65 -56t70.5 -42q14 -7 28.5 -13.5t30.5 -12.5zM573 867q78 2 146 -29.5t117.5 -85.5
t78 -124.5t28.5 -145.5q0 -98 -52.5 -183t-152.5 -150q130 -26 270 -26h99v-123h-99q-120 0 -232 17.5t-209 51.5q-99 -34 -216.5 -51.5t-252.5 -17.5h-123v123h123q160 0 296 26q-45 28 -84 64t-67 78t-44 90t-16 101q0 84 29 155.5t80.5 123t123 80t157.5 26.5z" />
    <glyph glyph-name="uni066F.fina" unicode="&#x66f;" horiz-adv-x="1652" 
d="M1068 856q181 0 279 -116q108 -127 108 -400v-217h224v-62v-61h-224v-50q0 -227 -105 -348q-33 -38 -75.5 -66.5t-94.5 -47.5q-107 -40 -260 -40h-235q-144 0 -262 63.5t-192 180.5q-51 81 -75 182t-19 216q5 124 43.5 252t108.5 274l111 -53q-60 -125 -94.5 -239.5
t-42.5 -216.5t9.5 -190.5t62.5 -159.5q57 -89 147.5 -137.5t202.5 -48.5h235q241 0 337 111q75 87 75 267v51h-258q-75 0 -146.5 20t-127 66t-89 120t-33.5 181q0 88 21 172t67.5 150t120.5 106.5t181 40.5zM1332 123v217q0 113 -19.5 193.5t-59.5 127.5q-32 37 -76.5 54.5
t-108.5 17.5q-63 0 -112.5 -23.5t-84 -68t-52.5 -109t-18 -145.5q0 -67 19.5 -112.5t49 -75t64 -45t65 -22.5t51.5 -8t24 -1h258z" />
    <glyph glyph-name="uni06C1.init" unicode="&#x6c1;" horiz-adv-x="706" arabic-form="initial" 
d="M439 -236q-32 -20 -62 -48t-52.5 -57.5t-37 -58.5t-16 -52t12 -37t45.5 -14q24 0 45.5 -9t37 -25t25 -37.5t9.5 -45.5q0 -27 -10 -49t-28 -37.5t-42.5 -24.5t-52.5 -9q-79 0 -122.5 53t-43.5 151q0 54 20 107.5t54 101.5t78 88.5t91 68.5zM493 804q10 -43 22 -95
t21.5 -107.5t16.5 -112.5t9 -109q1 -71 -20.5 -139.5t-62.5 -122t-100.5 -86t-133.5 -32.5h-260v123h260q48 3 84.5 25t61 57.5t37 80t11.5 91.5q-1 48 -7.5 100t-16 103t-20.5 99t-21 89z" />
    <glyph glyph-name="uni06C1.medi" unicode="&#x6c1;" horiz-adv-x="1186" arabic-form="medial" 
d="M1202 0h-136q-48 0 -84.5 -12.5t-63.5 -32.5t-45 -44.5t-30 -48.5q-25 -50 -34.5 -109t-5.5 -118t22 -114t49 -96l-49 -99q-89 -1 -164.5 26t-138 75.5t-111 114.5t-83 141t-55 156t-26.5 161h-262v123h321l62 -62q0 -44 8 -101t26 -117.5t46 -121.5t67.5 -113t91 -92
t116.5 -59q-20 52 -30 112.5t-9 121t13 119t36 106.5q50 101 135.5 154t197.5 53h136v-123z" />
    <glyph glyph-name="uni06BE" unicode="&#x6be;" horiz-adv-x="1651" arabic-form="isolated" 
d="M747 191q46 17 88.5 43.5t74 62.5t50.5 82t19 102q0 58 -20.5 106t-53.5 82t-74.5 52.5t-83.5 18.5q-72 0 -121 -21.5t-80 -56t-44.5 -78.5t-13.5 -88q0 -65 26.5 -115.5t83.5 -96.5q31 -25 68.5 -47.5t80.5 -45.5zM981 1030q80 -85 149 -158t126 -137.5t101.5 -121
t76.5 -107.5q32 -52 52 -101t26 -97.5t-4 -98t-38 -102.5q-22 -42 -58 -74.5t-80.5 -54.5t-95.5 -33.5t-102 -11.5q-53 0 -103.5 10.5t-99.5 28t-97 40t-96 46.5q-47 -14 -104 -30t-132.5 -20.5t-174 7.5t-227.5 53l35 111q103 -33 185 -42.5t139.5 -7.5t88.5 9t31 9
q-16 10 -30 20t-27 21q-77 60 -117 135.5t-40 172.5q0 82 28.5 150t79.5 116t121 74.5t153 26.5q75 0 140 -32t112.5 -85.5t75 -122.5t27.5 -142q0 -119 -55 -208.5t-158 -149.5q54 -29 117 -48t129 -19q43 0 79.5 9t65.5 24t49.5 34.5t31.5 40.5q18 33 25 64.5t3 64.5
t-18.5 69.5t-41.5 78.5q-59 94 -170 216.5t-267 287.5z" />
    <glyph glyph-name="uni06D2" unicode="&#x6d2;" horiz-adv-x="1651" arabic-form="isolated" 
d="M892 0h-438q-50 0 -93.5 -16.5t-75.5 -45.5t-50.5 -68.5t-18.5 -85.5q0 -47 18 -86t50 -67.5t75.5 -44t94.5 -15.5h1181v-123h-1181q-73 -2 -138 23t-113.5 70.5t-77 108t-28.5 134.5q0 69 26 131t76 110q51 48 116 73t139 25h438v-123z" />
    <glyph glyph-name="uni06D2.fina" unicode="&#x6d2;" horiz-adv-x="1314" arabic-form="final" 
d="M1329 0h-875q-50 0 -93.5 -16.5t-75.5 -45.5t-50.5 -68.5t-18.5 -85.5q0 -47 18 -86t50 -67.5t75.5 -44t94.5 -15.5h834v-123h-834q-77 0 -142 25.5t-113 70.5t-75 106.5t-27 133.5q0 73 28 135.5t76 107.5t113 70.5t140 25.5h875v-123z" />
    <glyph glyph-name="uni06A9" unicode="&#x6a9;" horiz-adv-x="1997" arabic-form="isolated" 
d="M1994 1460l-838 -369q66 -55 174.5 -155t248.5 -248q131 -139 179.5 -266t8.5 -229q-20 -48 -53.5 -82.5t-76.5 -57.5t-93 -35t-104 -16q-42 -3 -95.5 -6t-112 -5.5t-120 -4t-119.5 -1.5q-94 0 -174 1.5t-149 5.5t-128.5 12t-110.5 20q-21 5 -47 13t-53 19t-54.5 27
t-51.5 37q-106 91 -106 254q0 50 11 104t24 100t24.5 76.5t12.5 33.5l114 -45q0 -1 -10 -28t-22 -67t-21.5 -86.5t-9.5 -87.5q0 -95 51 -149t167 -82q45 -11 89.5 -17t103.5 -9.5t140 -5.5t200 -3q57 0 117 1.5t117.5 3.5t109.5 5.5t93 6.5q90 7 147 35.5t76 76.5
q18 45 8 94t-36 97t-62.5 92.5t-72.5 82.5q-105 112 -194.5 196.5t-154.5 141.5t-101.5 86.5t-37.5 29.5l13 105l930 411z" />
    <glyph glyph-name="uni06A9.fina" unicode="&#x6a9;" horiz-adv-x="2183" arabic-form="final" 
d="M936 109q128 0 234 8t186.5 26.5t133.5 48t74 72.5q17 34 18 71.5t-9.5 75.5t-30 74.5t-43.5 68.5q-40 54 -73 98.5t-62.5 84.5t-56.5 76.5t-55.5 75t-59.5 80.5t-68 92h1l24 92l939 423l50 -112l-869 -392q115 -158 232 -315.5t239 -320.5q60 -81 108 -140t98 -97.5
t110 -57t145 -18.5v-123q-95 0 -166.5 20t-129 57.5t-106.5 90t-100 118.5q-11 -75 -56 -126.5t-111 -85t-146 -51.5t-160.5 -26t-155 -10t-128.5 -2q-167 1 -291 8.5t-220 30.5q-63 16 -120 44t-99.5 70.5t-67.5 101t-25 134.5q0 50 11 104t24 100t24.5 76.5t12.5 33.5
l114 -45q0 -1 -10 -28t-22 -67t-21.5 -86.5t-9.5 -87.5q0 -95 51 -149t167 -82q42 -10 83.5 -16.5t95 -10.5t124.5 -5.5t173 -1.5z" />
    <glyph glyph-name="uni06AF" unicode="&#x6af;" horiz-adv-x="2004" arabic-form="isolated" 
d="M1994 1460l-838 -369q66 -55 174.5 -155t248.5 -248q131 -139 179.5 -266t8.5 -229q-20 -48 -53.5 -82.5t-76.5 -57.5t-93 -35t-104 -16q-42 -3 -95.5 -6t-112 -5.5t-120 -4t-119.5 -1.5q-94 0 -174 1.5t-149 5.5t-128.5 12t-110.5 20q-21 5 -47 13t-53 19t-54.5 27
t-51.5 37q-106 91 -106 254q0 50 11 104t24 100t24.5 76.5t12.5 33.5l114 -45q0 -1 -10 -28t-22 -67t-21.5 -86.5t-9.5 -87.5q0 -95 51 -149t167 -82q45 -11 89.5 -17t103.5 -9.5t140 -5.5t200 -3q57 0 117 1.5t117.5 3.5t109.5 5.5t93 6.5q90 7 147 35.5t76 76.5
q18 45 8 94t-36 97t-62.5 92.5t-72.5 82.5q-105 112 -194.5 196.5t-154.5 141.5t-101.5 86.5t-37.5 29.5l13 105l930 411zM1032.07 1486.56l790.178 334.484l41.6426 -81.8311l-840.148 -356.988z" />
    <glyph glyph-name="uni06AF.init" unicode="&#x6af;" horiz-adv-x="1180" arabic-form="initial" 
d="M1151 1460l-839 -369q66 -56 177 -158.5t254 -254.5q126 -133 172 -259q24 -66 25 -126.5t-21 -111.5q-11 -25 -34.5 -56.5t-67 -59t-109.5 -46.5t-162 -19h-569v123h569q113 0 182 33q59 28 78 74q28 65 -12.5 161t-140.5 203q-107 114 -197.5 200.5t-156.5 145
t-103 88.5t-38 30l13 105l930 410zM205 1487l759 327l40 -80l-807 -349z" />
    <glyph glyph-name="uni06AF.medi" unicode="&#x6af;" horiz-adv-x="1252" arabic-form="medial" 
d="M802 436q60 -81 108 -140t98 -97.5t110 -57t145 -18.5v-123q-95 0 -166.5 20t-129 57.5t-106.5 90t-100 118.5q-4 -22 -10.5 -41t-14.5 -36q-29 -63 -79.5 -103.5t-112.5 -64t-131 -32.5t-136 -9h-296v123h296q48 2 100.5 7.5t100.5 20.5t87 42t61 71q17 34 18 71.5
t-9.5 75.5t-30 74.5t-43.5 68.5q-40 54 -73 98.5t-62.5 84.5t-56.5 76.5t-55.5 75t-59.5 80.5t-68 92h1l24 92l939 423l50 -112l-869 -392q115 -158 232 -315.5t239 -320.5zM254 1477l759 327l40 -80l-807 -349z" />
    <glyph glyph-name="uni06AF.fina" unicode="&#x6af;" horiz-adv-x="2184" arabic-form="final" 
d="M936 109q128 0 234 8t186.5 26.5t133.5 48t74 72.5q17 34 18 71.5t-9.5 75.5t-30 74.5t-43.5 68.5q-40 54 -73 98.5t-62.5 84.5t-56.5 76.5t-55.5 75t-59.5 80.5t-68 92h1l24 92l939 423l50 -112l-869 -392q115 -158 232 -315.5t239 -320.5q60 -81 108 -140t98 -97.5
t110 -57t145 -18.5v-123q-95 0 -166.5 20t-129 57.5t-106.5 90t-100 118.5q-11 -75 -56 -126.5t-111 -85t-146 -51.5t-160.5 -26t-155 -10t-128.5 -2q-167 1 -291 8.5t-220 30.5q-63 16 -120 44t-99.5 70.5t-67.5 101t-25 134.5q0 50 11 104t24 100t24.5 76.5t12.5 33.5
l114 -45q0 -1 -10 -28t-22 -67t-21.5 -86.5t-9.5 -87.5q0 -95 51 -149t167 -82q42 -10 83.5 -16.5t95 -10.5t124.5 -5.5t173 -1.5zM1226 1478l759 327l40 -80l-807 -349z" />
    <glyph glyph-name="uni06BA" unicode="&#x6ba;" horiz-adv-x="1600" arabic-form="isolated" 
d="M1447 676v-726q0 -227 -105 -348q-33 -38 -75.5 -66.5t-94.5 -47.5q-107 -40 -260 -40h-235q-144 0 -262 63.5t-192 180.5q-51 81 -75 182t-19 216q5 124 43.5 252t108.5 274l111 -53q-60 -125 -94.5 -239.5t-42.5 -216.5t9.5 -190.5t62.5 -159.5q57 -89 147.5 -137.5
t202.5 -48.5h235q241 0 337 111q75 87 75 268v726h123z" />
    <glyph glyph-name="uni06BA.fina" unicode="&#x6ba;" horiz-adv-x="1684" arabic-form="final" 
d="M1694 123v-123h-31q-62 0 -117 19t-100 55v-124q0 -226 -106 -348q-39 -46 -87.5 -75.5t-103.5 -47t-115.5 -24.5t-123.5 -7h-235q-144 0 -262 63.5t-191 180.5q-51 81 -75.5 174.5t-19.5 208.5q5 125 44 260t110 281l110 -53q-60 -125 -94.5 -239.5t-43 -216.5
t9.5 -190.5t63 -159.5q56 -89 147 -137.5t202 -48.5h235q242 0 337 111q76 88 76 268v726h123v-330q0 -50 16 -91t44.5 -70t68.5 -45.5t88 -16.5h31z" />
    <glyph glyph-name="uni062F.fina" unicode="&#x62f;" horiz-adv-x="1254" arabic-form="final" 
d="M1271 123v-123h-16q-37 0 -76 14t-76.5 39t-71 58t-58.5 71q-1 -2 -1 -3t-1 -2q-22 -52 -65 -88.5t-97.5 -60t-117 -34t-123.5 -10.5q-66 0 -124 6.5t-113.5 21.5t-113 40t-121.5 62l63 106l52 -32q42 -25 100 -43t122.5 -27.5t130 -10t121.5 9.5q66 11 113.5 38.5
t64.5 68.5q15 36 4.5 80t-39.5 89l-376 570l103 66l405 -613q37 -57 73.5 -109.5t73 -93.5t73.5 -65.5t75 -24.5h16z" />
    <glyph glyph-name="uni06C1.fina" unicode="&#x6c1;" horiz-adv-x="1290" arabic-form="final" 
d="M735 1057l59 -252q13 -56 25 -106.5t23.5 -98.5t23.5 -94.5t24 -94.5q21 -80 60.5 -134.5t89 -89t103 -49.5t102.5 -15h58v-123h-58q-77 0 -150 23.5t-134 68.5q-70 51 -118.5 124t-71.5 164q-13 48 -24.5 95.5t-23 95.5t-23.5 99t-25 107l-46 194q-20 -4 -44 -9
t-47 -9.5t-42.5 -8.5t-31.5 -7q-60 -14 -101 -41.5t-66 -72.5q-26 -45 -35 -103t-6 -122t15 -131.5t28.5 -132t34.5 -123.5t33 -106l-117 -38q-30 93 -59 196t-46 209q-40 262 45 411q75 133 246 174q20 5 57.5 12.5t74.5 14.5t65 12.5t31 6.5z" />
    <glyph glyph-name="uni0686" unicode="&#x686;" horiz-adv-x="1455" arabic-form="isolated" 
d="M509 1071q22 -3 38.5 -5t37 -6.5t50 -13.5t78 -27.5t121 -48t179.5 -74.5q69 -29 133 -57t113.5 -49.5t79.5 -35l30 -13.5l-4 -114q-1 0 -44.5 -16t-124 -46t-195 -72.5t-256.5 -96.5q-61 -23 -125.5 -49t-125 -58t-113 -73t-89 -94t-54 -120t-7.5 -152
q4 -117 51.5 -205.5t127 -147.5t187 -88.5t232.5 -29.5h438v-123h-438q-170 0 -300.5 42.5t-220.5 119.5t-140 185.5t-60 240.5q-8 101 11 181t58.5 144t96.5 114.5t125.5 91t145.5 73.5t157 63q155 59 276 104t202 75q-101 44 -206 89.5t-198 83t-164 61.5t-104 24
q-63 0 -113.5 -50t-73.5 -139l-119 31q15 55 41.5 104.5t65 88t88.5 62t112 26.5zM990 27l124 125l124 -123l-125 -126zM587 24l63 63l61 61q35 -34 63.5 -63t62.5 -61l-125 -125zM785 -239l124 125l124 -123l-125 -126z" />
    <glyph glyph-name="uni0686.fina" unicode="&#x686;" horiz-adv-x="1575" arabic-form="final" 
d="M483 1014q22 -3 38.5 -5t37 -6.5t50 -13.5t78 -27.5t121 -48t179.5 -74.5q69 -29 133 -57t113.5 -49.5t79.5 -35l30 -13.5l-4 -114q-1 -1 -49 -18.5t-137 -50.5v-184q0 -54 20 -91t51.5 -60t70 -33t76.5 -10h225v-123h-225q-67 0 -127 20t-106 57q-53 44 -80.5 104.5
t-27.5 135.5v138q-66 -25 -144 -53.5t-167 -62.5q-61 -23 -125.5 -49t-125 -58t-113 -73t-89 -94t-54 -120t-7.5 -152q4 -117 51.5 -205.5t127 -147.5t187 -88.5t232.5 -29.5h438v-123h-438q-170 0 -300.5 42.5t-220.5 119.5t-140 185.5t-60 240.5q-8 101 11 181t58.5 144
t96.5 114.5t125.5 91t145.5 73.5t157 63q155 59 276 104t202 75q-101 44 -206 89.5t-198 83t-164 61.5t-104 24q-63 0 -113.5 -50t-73.5 -139l-119 31q15 55 41.5 104.5t65 88t88.5 62t112 26.5zM834 -112l124 125l124 -123l-125 -126zM431 -115l63 63l61 61
q35 -34 63.5 -63t62.5 -61l-125 -125zM629 -378l124 125l124 -123l-125 -126z" />
    <glyph glyph-name="uni0623" unicode="&#x623;" horiz-adv-x="592" arabic-form="isolated" 
d="M359 0h-125v1276h125v-1276zM21 1374q2 29 3 52t3 52l157 50q-26 7 -47.5 24t-36.5 39t-23 48t-8 52q0 31 11 62.5t31 59.5t49 49.5t65 32.5q33 10 61.5 9t54.5 -7.5t49.5 -16t45.5 -18.5l-21 -82q-17 6 -36.5 13.5t-40 12.5t-42 5.5t-43.5 -5.5q-21 -6 -39.5 -20.5
t-31.5 -34t-17.5 -41.5t1.5 -43q10 -32 54.5 -54.5t104.5 -22.5q45 0 96 13.5t98 27.5l28 -88z" />
    <glyph glyph-name="uni0623.fina" unicode="&#x623;" horiz-adv-x="647" arabic-form="final" 
d="M652 0q-119 0 -190.5 28t-109.5 83t-50 135.5t-12 185.5v842h125v-842q0 -93 6 -153t30 -94.5t71.5 -48t129.5 -13.5h14v-123h-14v0zM31 1368q2 29 3 52t3 52l157 50q-26 7 -47.5 24t-36.5 39t-23 48t-8 52q0 31 11 62.5t31 59.5t49 49.5t65 32.5q33 10 61.5 9t54.5 -7.5
t49.5 -16t45.5 -18.5l-21 -82q-17 6 -36.5 13.5t-40 12.5t-42 5.5t-43.5 -5.5q-21 -6 -39.5 -20.5t-31.5 -34t-17.5 -41.5t1.5 -43q10 -32 54.5 -54.5t104.5 -22.5q45 0 96 13.5t98 27.5l28 -88z" />
    <glyph glyph-name="uni0625" unicode="&#x625;" horiz-adv-x="592" arabic-form="isolated" 
d="M321 0h-125v1427h125v-1427zM53 -685q2 29 3 52t3 52l157 50q-26 7 -47.5 24t-36.5 39t-23 48t-8 52q0 31 11 62.5t31 59.5t49 49.5t65 32.5q33 10 61.5 9t54.5 -7.5t49.5 -16t45.5 -18.5l-21 -82q-17 6 -36.5 13.5t-40 12.5t-42 5.5t-43.5 -5.5q-21 -6 -39.5 -20.5
t-31.5 -34t-17.5 -41.5t1.5 -43q10 -32 54.5 -54.5t104.5 -22.5q45 0 96 13.5t98 27.5l28 -88z" />
    <glyph glyph-name="uni0625.fina" unicode="&#x625;" horiz-adv-x="524" arabic-form="final" 
d="M523 0q-119 0 -190.5 28t-109.5 83t-50 135.5t-12 185.5v995h125v-995q0 -93 6 -153t30 -94.5t71.5 -48t129.5 -13.5h14v-123h-14v0zM21 -668q2 29 3 52t3 52l157 50q-26 7 -47.5 24t-36.5 39t-23 48t-8 52q0 31 11 62.5t31 59.5t49 49.5t65 32.5q33 10 61.5 9t54.5 -7.5
t49.5 -16t45.5 -18.5l-21 -82q-17 6 -36.5 13.5t-40 12.5t-42 5.5t-43.5 -5.5q-21 -6 -39.5 -20.5t-31.5 -34t-17.5 -41.5t1.5 -43q10 -32 54.5 -54.5t104.5 -22.5q45 0 96 13.5t98 27.5l28 -88z" />
    <glyph glyph-name="uni0622" unicode="&#x622;" horiz-adv-x="761" arabic-form="isolated" 
d="M426 0h-125v1276h125v-1276zM747 1429h-491q-71 0 -116.5 -9.5t-75 -29t-47 -49.5t-32.5 -72q-34 10 -59.5 18t-56.5 17q25 75 55.5 123.5t74.5 76t106 38t151 10.5h491v-123z" />
    <glyph glyph-name="uni0622.fina" unicode="&#x622;" horiz-adv-x="652" arabic-form="final" 
d="M652 0q-119 0 -190.5 28t-109.5 83t-50 135.5t-12 185.5v842h125v-842q0 -93 6 -153t30 -94.5t71.5 -48t129.5 -13.5h14v-123h-14v0zM698 1429h-491q-71 0 -116.5 -9.5t-75 -29t-47 -49.5t-32.5 -72q-34 10 -59.5 18t-56.5 17q25 75 55.5 123.5t74.5 76t106 38t151 10.5
h491v-123z" />
    <glyph glyph-name="uni0671" unicode="&#x671;" horiz-adv-x="592" arabic-form="isolated" 
d="M359 0h-125v1276h125v-1276zM-14 1429l19 85h129l47 73l83 122q38 46 84 77t103 31q33 0 64.5 -12t56.5 -37.5t40.5 -64.5t15.5 -92q0 -51 -17 -85.5t-43 -56t-58.5 -31t-63.5 -9.5h-460zM446 1514q42 0 69 23t27 74q0 58 -23.5 89.5t-67.5 31.5q-32 0 -61 -20t-56 -51.5
t-51.5 -69.5t-45.5 -74q-1 -1 -1 -3h210z" />
    <glyph glyph-name="uni0671.fina" unicode="&#x671;" horiz-adv-x="647" arabic-form="final" 
d="M652 0q-119 0 -190.5 28t-109.5 83t-50 135.5t-12 185.5v842h125v-842q0 -93 6 -153t30 -94.5t71.5 -48t129.5 -13.5h14v-123h-14v0zM-14 1430l19 85h129l47 73l83 122q38 46 84 77t103 31q33 0 64.5 -12t56.5 -37.5t40.5 -64.5t15.5 -92q0 -51 -17 -85.5t-43 -56
t-58.5 -31t-63.5 -9.5h-460zM446 1515q42 0 69 23t27 74q0 58 -23.5 89.5t-67.5 31.5q-32 0 -61 -20t-56 -51.5t-51.5 -69.5t-45.5 -74q-1 -1 -1 -3h210z" />
    <glyph glyph-name="uni0628" unicode="&#x628;" horiz-adv-x="2101" arabic-form="isolated" 
d="M1051 0q-152 0 -281.5 2.5t-235.5 17t-187.5 45.5t-137.5 89q-40 42 -59.5 97.5t-19.5 124.5q0 49 9 105.5t19.5 106t19.5 83.5t10 37l118 -34q0 -1 -4 -15t-10 -38t-12.5 -54.5t-12.5 -63.5t-10 -66t-4 -61q0 -95 57 -146.5t162 -75t253.5 -27.5t331.5 -4h16
q183 0 331.5 4t253.5 27.5t162 75t57 146.5q0 28 -4 61t-10 66t-12.5 63.5t-12.5 54.5t-10 38t-4 15l118 34q1 -3 10 -37t19.5 -83.5t19.5 -106t9 -105.5q0 -69 -19.5 -124.5t-59.5 -97.5q-56 -58 -137.5 -89t-187.5 -45.5t-235.5 -17t-281.5 -2.5h-28v0zM944 -349l114 115
l118 -117l-116 -116z" />
    <glyph glyph-name="uni0628.init" unicode="&#x628;" horiz-adv-x="701" arabic-form="initial" 
d="M493 804q10 -43 22 -95t21.5 -107.5t16.5 -112.5t9 -109q1 -71 -20.5 -139.5t-62.5 -122t-100.5 -86t-133.5 -32.5h-260v123h260q48 3 84.5 25t61 57.5t37 80t11.5 91.5q-1 48 -7.5 100t-16 103t-20.5 99t-21 89l119 36v0zM228 -363l114 115l118 -117l-116 -116z" />
    <glyph glyph-name="uni0628.medi" unicode="&#x628;" horiz-adv-x="812" arabic-form="medial" 
d="M829 123v-123h-70q-67 0 -127 20t-105 57q-27 22 -45 46q-51 -64 -128 -93t-187 -30h-188v123h188q59 2 105 11t78 31t49.5 58.5t19.5 93.5v359h123v-359q0 -54 20 -91t51 -60t69.5 -33t76.5 -10h70zM261 -374l114 115l118 -117l-116 -116z" />
    <glyph glyph-name="uni0628.fina" unicode="&#x628;" horiz-adv-x="2248" arabic-form="final" 
d="M2262 123v-123h-46q-67 0 -127 22.5t-108 64.5q-26 24 -45 51q-45 -60 -132 -92q-50 -18 -117 -28t-155 -14.5t-198.5 -5t-248.5 -0.5q-103 0 -195.5 0.5t-174 4.5t-152.5 12.5t-131 23.5q-138 36 -209 111q-80 86 -80 224q0 49 9 105.5t19.5 106t19.5 83.5t10 37
l118 -34q0 -1 -4 -15t-10 -38t-12.5 -54.5t-12.5 -63.5t-10 -66t-4 -61q0 -44 11 -78.5t35 -60.5t61 -45t89 -32q55 -14 123 -21.5t147 -11t168 -4t185 -0.5q126 0 231.5 0.5t190 4.5t149 12.5t107.5 23.5q34 12 54.5 29.5t33.5 43.5q11 23 17 55.5t8 79.5v306h123v-267v-11
v-14v-20.5v-30.5q0 -52 18.5 -91t49.5 -65.5t69.5 -40t79.5 -13.5h46zM965 -362l114 115l118 -117l-116 -116z" />
    <glyph glyph-name="uni067E" unicode="&#x67e;" horiz-adv-x="2106" arabic-form="isolated" 
d="M1051 0q-152 0 -281.5 2.5t-235.5 17t-187.5 45.5t-137.5 89q-40 42 -59.5 97.5t-19.5 124.5q0 49 9 105.5t19.5 106t19.5 83.5t10 37l118 -34q0 -1 -4 -15t-10 -38t-12.5 -54.5t-12.5 -63.5t-10 -66t-4 -61q0 -95 57 -146.5t162 -75t253.5 -27.5t331.5 -4h16
q183 0 331.5 4t253.5 27.5t162 75t57 146.5q0 28 -4 61t-10 66t-12.5 63.5t-12.5 54.5t-10 38t-4 15l118 34q1 -3 10 -37t19.5 -83.5t19.5 -106t9 -105.5q0 -69 -19.5 -124.5t-59.5 -97.5q-56 -58 -137.5 -89t-187.5 -45.5t-235.5 -17t-281.5 -2.5h-28v0zM1158 -346l124 125
l124 -123l-125 -126zM755 -349l63 63l61 61q35 -34 63.5 -63t62.5 -61l-125 -125zM953 -612l124 125l124 -123l-125 -126z" />
    <glyph glyph-name="uni067E.fina" unicode="&#x67e;" horiz-adv-x="2243" arabic-form="final" 
d="M2262 123v-123h-46q-67 0 -127 22.5t-108 64.5q-26 24 -45 51q-45 -60 -132 -92q-50 -18 -117 -28t-155 -14.5t-198.5 -5t-248.5 -0.5q-103 0 -195.5 0.5t-174 4.5t-152.5 12.5t-131 23.5q-138 36 -209 111q-80 86 -80 224q0 49 9 105.5t19.5 106t19.5 83.5t10 37
l118 -34q0 -1 -4 -15t-10 -38t-12.5 -54.5t-12.5 -63.5t-10 -66t-4 -61q0 -44 11 -78.5t35 -60.5t61 -45t89 -32q55 -14 123 -21.5t147 -11t168 -4t185 -0.5q126 0 231.5 0.5t190 4.5t149 12.5t107.5 23.5q34 12 54.5 29.5t33.5 43.5q11 23 17 55.5t8 79.5v306h123v-267v-11
v-14v-20.5v-30.5q0 -52 18.5 -91t49.5 -65.5t69.5 -40t79.5 -13.5h46zM1157 -345l124 125l124 -123l-125 -126zM754 -348l63 63l61 61q35 -34 63.5 -63t62.5 -61l-125 -125zM952 -611l124 125l124 -123l-125 -126z" />
    <glyph glyph-name="uni067E.init" unicode="&#x67e;" horiz-adv-x="876" arabic-form="initial" 
d="M644 804q10 -43 22 -95t21.5 -107.5t16.5 -112.5t9 -109q1 -71 -20.5 -139.5t-62.5 -122t-100.5 -86t-133.5 -32.5h-415v123h415q48 3 84.5 25t61 57.5t37 80t11.5 91.5q-1 48 -7.5 100t-16 103t-20.5 99t-21 89l119 36v0zM502 -348l124 125l124 -123l-125 -126zM99 -351
l63 63l61 61q35 -34 63.5 -63t62.5 -61l-125 -125zM297 -614l124 125l124 -123l-125 -126z" />
    <glyph glyph-name="uni067E.medi" unicode="&#x67e;" horiz-adv-x="1049" arabic-form="medial" 
d="M1066 123v-123h-164q-67 0 -127 20t-105 57q-27 22 -45 46q-51 -64 -128 -93t-187 -30h-330v123h330q59 2 105 11t78 31t49.5 58.5t19.5 93.5v359h123v-359q0 -54 20 -91t51 -60t69.5 -33t76.5 -10h164zM561 -343l124 125l124 -123l-125 -126zM158 -346l63 63l61 61
q35 -34 63.5 -63t62.5 -61l-125 -125zM356 -609l124 125l124 -123l-125 -126z" />
    <glyph glyph-name="uni062A" unicode="&#x62a;" horiz-adv-x="2101" arabic-form="isolated" 
d="M1051 0q-152 0 -281.5 2.5t-235.5 17t-187.5 45.5t-137.5 89q-40 42 -59.5 97.5t-19.5 124.5q0 49 9 105.5t19.5 106t19.5 83.5t10 37l118 -34q0 -1 -4 -15t-10 -38t-12.5 -54.5t-12.5 -63.5t-10 -66t-4 -61q0 -95 57 -146.5t162 -75t253.5 -27.5t331.5 -4h16
q183 0 331.5 4t253.5 27.5t162 75t57 146.5q0 28 -4 61t-10 66t-12.5 63.5t-12.5 54.5t-10 38t-4 15l118 34q1 -3 10 -37t19.5 -83.5t19.5 -106t9 -105.5q0 -69 -19.5 -124.5t-59.5 -97.5q-56 -58 -137.5 -89t-187.5 -45.5t-235.5 -17t-281.5 -2.5h-28v0zM1267 802l-124 125
q34 35 61.5 62.5t60.5 61.5l126 -125zM861 804l-124 125q34 35 61.5 62.5t60.5 61.5l126 -125z" />
    <glyph glyph-name="uni062A.init" unicode="&#x62a;" horiz-adv-x="888" arabic-form="initial" 
d="M644 804q10 -43 22 -95t21.5 -107.5t16.5 -112.5t9 -109q1 -71 -20.5 -139.5t-62.5 -122t-100.5 -86t-133.5 -32.5h-415v123h415q48 3 84.5 25t61 57.5t37 80t11.5 91.5q-1 48 -7.5 100t-16 103t-20.5 99t-21 89l119 36v0zM627 1062l-124 125q34 35 61.5 62.5t60.5 61.5
l126 -125zM221 1064l-124 125q34 35 61.5 62.5t60.5 61.5l126 -125z" />
    <glyph glyph-name="uni062A.medi" unicode="&#x62a;" horiz-adv-x="1049" arabic-form="medial" 
d="M716 985l-124 125q34 35 61.5 62.5t60.5 61.5l126 -125zM310 987l-124 125q34 35 61.5 62.5t60.5 61.5l126 -125zM1066 123v-123h-164q-67 0 -127 20t-105 57q-27 22 -45 46q-51 -64 -128 -93t-187 -30h-330v123h330q59 2 105 11t78 31t49.5 58.5t19.5 93.5v359h123v-359
q0 -54 20 -91t51 -60t69.5 -33t76.5 -10h164z" />
    <glyph glyph-name="uni062A.fina" unicode="&#x62a;" horiz-adv-x="2243" arabic-form="final" 
d="M2262 123v-123h-46q-67 0 -127 22.5t-108 64.5q-26 24 -45 51q-45 -60 -132 -92q-50 -18 -117 -28t-155 -14.5t-198.5 -5t-248.5 -0.5q-103 0 -195.5 0.5t-174 4.5t-152.5 12.5t-131 23.5q-138 36 -209 111q-80 86 -80 224q0 49 9 105.5t19.5 106t19.5 83.5t10 37
l118 -34q0 -1 -4 -15t-10 -38t-12.5 -54.5t-12.5 -63.5t-10 -66t-4 -61q0 -44 11 -78.5t35 -60.5t61 -45t89 -32q55 -14 123 -21.5t147 -11t168 -4t185 -0.5q126 0 231.5 0.5t190 4.5t149 12.5t107.5 23.5q34 12 54.5 29.5t33.5 43.5q11 23 17 55.5t8 79.5v306h123v-267v-11
v-14v-20.5v-30.5q0 -52 18.5 -91t49.5 -65.5t69.5 -40t79.5 -13.5h46zM1267 802l-124 125q34 35 61.5 62.5t60.5 61.5l126 -125zM861 804l-124 125q34 35 61.5 62.5t60.5 61.5l126 -125z" />
    <glyph glyph-name="uni062B" unicode="&#x62b;" horiz-adv-x="2104" arabic-form="isolated" 
d="M1051 0q-152 0 -281.5 2.5t-235.5 17t-187.5 45.5t-137.5 89q-40 42 -59.5 97.5t-19.5 124.5q0 49 9 105.5t19.5 106t19.5 83.5t10 37l118 -34q0 -1 -4 -15t-10 -38t-12.5 -54.5t-12.5 -63.5t-10 -66t-4 -61q0 -95 57 -146.5t162 -75t253.5 -27.5t331.5 -4h16
q183 0 331.5 4t253.5 27.5t162 75t57 146.5q0 28 -4 61t-10 66t-12.5 63.5t-12.5 54.5t-10 38t-4 15l118 34q1 -3 10 -37t19.5 -83.5t19.5 -106t9 -105.5q0 -69 -19.5 -124.5t-59.5 -97.5q-56 -58 -137.5 -89t-187.5 -45.5t-235.5 -17t-281.5 -2.5h-28v0zM1004 887
l-124 -125l-124 123l125 126zM1407 890l-124 -124l-126 124l125 125zM1209 1162l-124 -124l-126 124l125 125z" />
    <glyph glyph-name="uni062B.init" unicode="&#x62b;" horiz-adv-x="878" arabic-form="initial" 
d="M644 804q10 -43 22 -95t21.5 -107.5t16.5 -112.5t9 -109q1 -71 -20.5 -139.5t-62.5 -122t-100.5 -86t-133.5 -32.5h-415v123h415q48 3 84.5 25t61 57.5t37 80t11.5 91.5q-1 48 -7.5 100t-16 103t-20.5 99t-21 89l119 36v0zM328 1163l-124 -125l-124 123l125 126z
M731 1166l-124 -124l-126 124l125 125zM533 1438l-124 -124l-126 124l125 125z" />
    <glyph glyph-name="uni062B.medi" unicode="&#x62b;" horiz-adv-x="1049" arabic-form="medial" 
d="M1066 123v-123h-164q-67 0 -127 20t-105 57q-27 22 -45 46q-51 -64 -128 -93t-187 -30h-330v123h330q59 2 105 11t78 31t49.5 58.5t19.5 93.5v359h123v-359q0 -54 20 -91t51 -60t69.5 -33t76.5 -10h164zM407 1084l-124 -125l-124 123l125 126zM810 1087l-124 -124
l-126 124l125 125zM612 1359l-124 -124l-126 124l125 125z" />
    <glyph glyph-name="uni062B.fina" unicode="&#x62b;" horiz-adv-x="2243" arabic-form="final" 
d="M2262 123v-123h-46q-67 0 -127 22.5t-108 64.5q-26 24 -45 51q-45 -60 -132 -92q-50 -18 -117 -28t-155 -14.5t-198.5 -5t-248.5 -0.5q-103 0 -195.5 0.5t-174 4.5t-152.5 12.5t-131 23.5q-138 36 -209 111q-80 86 -80 224q0 49 9 105.5t19.5 106t19.5 83.5t10 37
l118 -34q0 -1 -4 -15t-10 -38t-12.5 -54.5t-12.5 -63.5t-10 -66t-4 -61q0 -44 11 -78.5t35 -60.5t61 -45t89 -32q55 -14 123 -21.5t147 -11t168 -4t185 -0.5q126 0 231.5 0.5t190 4.5t149 12.5t107.5 23.5q34 12 54.5 29.5t33.5 43.5q11 23 17 55.5t8 79.5v306h123v-267v-11
v-14v-20.5v-30.5q0 -52 18.5 -91t49.5 -65.5t69.5 -40t79.5 -13.5h46zM1004 887l-124 -125l-124 123l125 126zM1407 890l-124 -124l-126 124l125 125zM1209 1162l-124 -124l-126 124l125 125z" />
    <glyph glyph-name="uni0679" unicode="&#x679;" horiz-adv-x="2135" arabic-form="isolated" 
d="M1051 0q-152 0 -281.5 2.5t-235.5 17t-187.5 45.5t-137.5 89q-40 42 -59.5 97.5t-19.5 124.5q0 49 9 105.5t19.5 106t19.5 83.5t10 37l118 -34q0 -1 -4 -15t-10 -38t-12.5 -54.5t-12.5 -63.5t-10 -66t-4 -61q0 -95 57 -146.5t162 -75t253.5 -27.5t331.5 -4h16
q183 0 331.5 4t253.5 27.5t162 75t57 146.5q0 28 -4 61t-10 66t-12.5 63.5t-12.5 54.5t-10 38t-4 15l118 34q1 -3 10 -37t19.5 -83.5t19.5 -106t9 -105.5q0 -69 -19.5 -124.5t-59.5 -97.5q-56 -58 -137.5 -89t-187.5 -45.5t-235.5 -17t-281.5 -2.5h-28v0zM818 670v85h100
l47 73v485h83v-363q38 46 84 77t103 31q33 0 64.5 -12t56.5 -37.5t40.5 -64.5t15.5 -92q0 -51 -17 -85.5t-43 -56t-58.5 -31t-63.5 -9.5h-412zM1230 755q42 0 69 23t27 74q0 58 -23.5 89.5t-67.5 31.5q-32 0 -61 -20t-56 -51.5t-51.5 -69.5t-45.5 -74q-1 -1 -1 -3h210z" />
    <glyph glyph-name="uni0679.init" unicode="&#x679;" horiz-adv-x="873" arabic-form="initial" 
d="M644 804q10 -43 22 -95t21.5 -107.5t16.5 -112.5t9 -109q1 -71 -20.5 -139.5t-62.5 -122t-100.5 -86t-133.5 -32.5h-415v123h415q48 3 84.5 25t61 57.5t37 80t11.5 91.5q-1 48 -7.5 100t-16 103t-20.5 99t-21 89l119 36v0zM181 990v85h100l47 73v485h83v-363q38 46 84 77
t103 31q33 0 64.5 -12t56.5 -37.5t40.5 -64.5t15.5 -92q0 -51 -17 -85.5t-43 -56t-58.5 -31t-63.5 -9.5h-412zM593 1075q42 0 69 23t27 74q0 58 -23.5 89.5t-67.5 31.5q-32 0 -61 -20t-56 -51.5t-51.5 -69.5t-45.5 -74q-1 -1 -1 -3h210z" />
    <glyph glyph-name="uni0679.medi" unicode="&#x679;" horiz-adv-x="1049" arabic-form="medial" 
d="M1066 123v-123h-164q-67 0 -127 20t-105 57q-27 22 -45 46q-51 -64 -128 -93t-187 -30h-330v123h330q59 2 105 11t78 31t49.5 58.5t19.5 93.5v359h123v-359q0 -54 20 -91t51 -60t69.5 -33t76.5 -10h164zM146 856v85h100l47 73v485h83v-363q38 46 84 77t103 31
q33 0 64.5 -12t56.5 -37.5t40.5 -64.5t15.5 -92q0 -51 -17 -85.5t-43 -56t-58.5 -31t-63.5 -9.5h-412zM558 941q42 0 69 23t27 74q0 58 -23.5 89.5t-67.5 31.5q-32 0 -61 -20t-56 -51.5t-51.5 -69.5t-45.5 -74q-1 -1 -1 -3h210z" />
    <glyph glyph-name="uni0679.fina" unicode="&#x679;" horiz-adv-x="2243" arabic-form="final" 
d="M2262 123v-123h-46q-67 0 -127 22.5t-108 64.5q-26 24 -45 51q-45 -60 -132 -92q-50 -18 -117 -28t-155 -14.5t-198.5 -5t-248.5 -0.5q-103 0 -195.5 0.5t-174 4.5t-152.5 12.5t-131 23.5q-138 36 -209 111q-80 86 -80 224q0 49 9 105.5t19.5 106t19.5 83.5t10 37
l118 -34q0 -1 -4 -15t-10 -38t-12.5 -54.5t-12.5 -63.5t-10 -66t-4 -61q0 -44 11 -78.5t35 -60.5t61 -45t89 -32q55 -14 123 -21.5t147 -11t168 -4t185 -0.5q126 0 231.5 0.5t190 4.5t149 12.5t107.5 23.5q34 12 54.5 29.5t33.5 43.5q11 23 17 55.5t8 79.5v306h123v-267v-11
v-14v-20.5v-30.5q0 -52 18.5 -91t49.5 -65.5t69.5 -40t79.5 -13.5h46zM830 680v85h100l47 73v485h83v-363q38 46 84 77t103 31q33 0 64.5 -12t56.5 -37.5t40.5 -64.5t15.5 -92q0 -51 -17 -85.5t-43 -56t-58.5 -31t-63.5 -9.5h-412zM1242 765q42 0 69 23t27 74
q0 58 -23.5 89.5t-67.5 31.5q-32 0 -61 -20t-56 -51.5t-51.5 -69.5t-45.5 -74q-1 -1 -1 -3h210z" />
    <glyph glyph-name="uni0629" unicode="&#x629;" horiz-adv-x="1043" arabic-form="isolated" 
d="M523 0q-85 0 -159.5 27.5t-130 75.5t-88 112.5t-32.5 137.5q0 70 19 129t47.5 108.5t61.5 90t60 73.5q15 18 33 38t36 39.5t35.5 37t31.5 32.5l-78 87l90 82q1 0 24.5 -25.5t60 -65.5t80.5 -89t85 -97q50 -57 93 -111t74.5 -107t49.5 -106.5t18 -111.5
q0 -75 -32.5 -141.5t-94.5 -117.5q-57 -48 -130 -73t-154 -25zM520 810q-14 -14 -30 -30.5t-32.5 -34t-32 -35t-28.5 -33.5q-24 -29 -52.5 -63.5t-52.5 -75t-40 -87t-16 -98.5q0 -45 21 -86.5t60 -73.5q42 -34 95.5 -52t110.5 -18q60 0 112.5 18.5t91.5 50t61.5 74.5
t22.5 91q0 38 -13 76.5t-38.5 81t-64 91t-89.5 107.5zM704 1250l-124 125q34 35 61.5 62.5t60.5 61.5l126 -125zM298 1252l-124 125q34 35 61.5 62.5t60.5 61.5l126 -125z" />
    <glyph glyph-name="uni0629.fina" unicode="&#x629;" horiz-adv-x="1268" arabic-form="final" 
d="M1282 0h-20q-79 0 -147.5 19t-128.5 56q-69 44 -119 110q-22 29 -39 63t-30 72q-31 -63 -77.5 -114.5t-114.5 -77.5q-87 -35 -173.5 -32t-157.5 37.5t-121.5 97.5t-65.5 148q-17 103 18.5 196t110.5 167q72 72 178 127t241 91l-27 134l122 34q29 -124 50.5 -217
t38.5 -166q12 -51 22 -96.5t20.5 -89t21.5 -86.5t24 -91q16 -59 42 -100.5t58.5 -70.5t67.5 -46.5t69.5 -26.5t64.5 -12t52 -3h20v-123zM671 843q-118 -32 -209.5 -78.5t-152 -104t-86.5 -123.5t-14 -136q10 -57 48 -98t89 -62.5t106.5 -22.5t99.5 20q57 28 92 67.5t54 82.5
t25 85.5t5.5 76.5t-4 55.5t-3.5 22.5q-11 48 -18.5 81t-13 57t-10 42t-8.5 35zM850 1340l-124 125q34 35 61.5 62.5t60.5 61.5l126 -125zM444 1342l-124 125q34 35 61.5 62.5t60.5 61.5l126 -125z" />
    <glyph glyph-name="uni0686.init" unicode="&#x686;" horiz-adv-x="1396" arabic-form="initial" 
d="M428 853q31 0 79.5 -11.5t108.5 -30.5t127 -43.5t134 -51t130 -52.5t115.5 -48t90 -37.5t53.5 -21.5l17 -111q-99 -72 -184 -133t-170 -110.5t-176 -87.5t-202 -63.5t-248 -38.5t-313 -13v123q150 -1 268 8.5t215.5 29t180 49.5t161.5 71t159.5 92.5t173.5 114.5
q-69 26 -142.5 54t-145.5 55t-140 51t-125 42.5t-100.5 29t-67.5 10.5q-63 0 -113.5 -50t-73.5 -139l-119 31q15 58 42.5 109t66.5 89t88.5 60.5t109.5 22.5zM760 -358l124 125l124 -123l-125 -126zM357 -361l63 63l61 61q35 -34 63.5 -63t62.5 -61l-125 -125zM555 -624
l124 125l124 -123l-125 -126z" />
    <glyph glyph-name="uni0686.medi" unicode="&#x686;" horiz-adv-x="1532" arabic-form="medial" 
d="M1541 0h-72q-33 0 -73 5t-79.5 15t-74 24.5t-57.5 32.5q-45 36 -72.5 84.5t-36.5 106.5q-68 -43 -137.5 -80t-144.5 -67t-158.5 -52.5t-181 -37.5t-211.5 -23t-250 -8v123q150 0 271.5 9t224 28t191 48.5t172 69.5t167.5 91.5t177 114.5q-69 26 -142.5 54.5t-145.5 55.5
t-139.5 52t-124.5 43.5t-100.5 29.5t-67.5 11q-63 0 -113.5 -50t-73.5 -139l-119 31q15 58 42.5 109t66.5 89t88.5 60.5t109.5 22.5q31 0 79.5 -11.5t108.5 -30.5t127 -43.5t134 -51t130 -52.5t115.5 -48t90 -37.5t53.5 -21.5l17 -111q-38 -28 -74.5 -54t-71.5 -51
q0 -53 22 -94t60 -68.5t90 -41.5t111 -14h72v-123zM769 -359l124 125l124 -123l-125 -126zM366 -362l63 63l61 61q35 -34 63.5 -63t62.5 -61l-125 -125zM564 -625l124 125l124 -123l-125 -126z" />
    <glyph glyph-name="uni062C" unicode="&#x62c;" horiz-adv-x="1491" arabic-form="isolated" 
d="M479 1084q22 -3 38.5 -5t37 -6.5t50 -13.5t78 -27.5t121 -48t179.5 -74.5q69 -29 133 -57t113.5 -49.5t79.5 -35l30 -13.5l-4 -114q-1 0 -44.5 -16t-124 -46t-195 -72.5t-256.5 -96.5q-46 -17 -94.5 -34.5t-96.5 -38t-94.5 -46t-87.5 -59.5q-68 -54 -97.5 -123
t-24.5 -163q3 -70 29.5 -125.5t70 -97t101 -70.5t121 -47t130.5 -26t131 -8h438v-123h-438q-138 0 -263 30t-222 91t-156 153t-65 217q-12 244 168 388q44 36 93.5 63.5t101.5 50.5t105.5 43t106.5 40q77 29 153 55.5t144 49t125 41.5t98 34q-67 29 -140 59.5t-145 59
t-140 54t-125 44t-99.5 29.5t-64.5 11q-63 0 -113.5 -50t-73.5 -139l-119 31q15 55 41.5 104.5t65 88t88.5 62t112 26.5zM753 42l114 115l118 -117l-116 -116z" />
    <glyph glyph-name="uni062C.init" unicode="&#x62c;" horiz-adv-x="1439" arabic-form="initial" 
d="M428 853q31 0 79.5 -11.5t108.5 -30.5t127 -43.5t134 -51t130 -52.5t115.5 -48t90 -37.5t53.5 -21.5l17 -111q-99 -72 -184 -133t-170 -110.5t-176 -87.5t-202 -63.5t-248 -38.5t-313 -13v123q150 -1 268 8.5t215.5 29t180 49.5t161.5 71t159.5 92.5t173.5 114.5
q-69 26 -142.5 54t-145.5 55t-140 51t-125 42.5t-100.5 29t-67.5 10.5q-63 0 -113.5 -50t-73.5 -139l-119 31q15 58 42.5 109t66.5 89t88.5 60.5t109.5 22.5zM559 -358l114 115l118 -117l-116 -116z" />
    <glyph glyph-name="uni062C.medi" unicode="&#x62c;" horiz-adv-x="1532" arabic-form="medial" 
d="M1541 0h-72q-33 0 -73 5t-79.5 15t-74 24.5t-57.5 32.5q-45 36 -72.5 84.5t-36.5 106.5q-68 -43 -137.5 -80t-144.5 -67t-158.5 -52.5t-181 -37.5t-211.5 -23t-250 -8v123q150 0 271.5 9t224 28t191 48.5t172 69.5t167.5 91.5t177 114.5q-69 26 -142.5 54.5t-145.5 55.5
t-139.5 52t-124.5 43.5t-100.5 29.5t-67.5 11q-63 0 -113.5 -50t-73.5 -139l-119 31q15 58 42.5 109t66.5 89t88.5 60.5t109.5 22.5q31 0 79.5 -11.5t108.5 -30.5t127 -43.5t134 -51t130 -52.5t115.5 -48t90 -37.5t53.5 -21.5l17 -111q-38 -28 -74.5 -54t-71.5 -51
q0 -53 22 -94t60 -68.5t90 -41.5t111 -14h72v-123zM576 -358l114 115l118 -117l-116 -116z" />
    <glyph glyph-name="uni062C.fina" unicode="&#x62c;" horiz-adv-x="1583" arabic-form="final" 
d="M464 877q23 -3 39 -5t36.5 -6.5t50 -13.5t78 -27.5t121 -48t179.5 -74.5q69 -29 133 -57t113.5 -49.5t79.5 -35l30 -13.5l-4 -114q-1 -1 -44 -16.5t-123 -45.5v-54q0 -54 20 -91t51.5 -60t70 -33t76.5 -10h225v-123h-225q-67 0 -127 20t-106 57q-53 44 -80.5 104.5
t-27.5 135.5v9q-69 -26 -151.5 -57t-178.5 -67q-46 -17 -94.5 -34.5t-96.5 -38t-94.5 -46t-87.5 -59.5q-68 -54 -97.5 -123t-24.5 -163q3 -71 29.5 -126t70 -96.5t101 -70.5t121 -47t130.5 -26t131 -8h438v-123h-438q-138 0 -263 30t-222 91t-156 153t-65 217
q-12 244 168 388q44 36 93.5 63.5t101.5 50.5t105.5 43t106.5 40q77 29 154.5 55t147.5 48.5t129 41t100 33.5q-67 29 -140.5 59.5t-147 59.5t-143 54.5t-127.5 44.5t-101.5 30t-65.5 11q-63 0 -113.5 -50t-73.5 -139l-119 31q15 55 41.5 104.5t65 88t88.5 62t112 26.5z
M736 -198l114 115l118 -117l-116 -116z" />
    <glyph glyph-name="uni062E" unicode="&#x62e;" horiz-adv-x="1465" arabic-form="isolated" 
d="M479 1084q22 -3 38.5 -5t37 -6.5t50 -13.5t78 -27.5t121 -48t179.5 -74.5q69 -29 133 -57t113.5 -49.5t79.5 -35l30 -13.5l-4 -114q-1 0 -44.5 -16t-124 -46t-195 -72.5t-256.5 -96.5q-46 -17 -94.5 -34.5t-96.5 -38t-94.5 -46t-87.5 -59.5q-68 -54 -97.5 -123
t-24.5 -163q3 -70 29.5 -125.5t70 -97t101 -70.5t121 -47t130.5 -26t131 -8h438v-123h-438q-138 0 -263 30t-222 91t-156 153t-65 217q-12 244 168 388q44 36 93.5 63.5t101.5 50.5t105.5 43t106.5 40q77 29 153 55.5t144 49t125 41.5t98 34q-67 29 -140 59.5t-145 59
t-140 54t-125 44t-99.5 29.5t-64.5 11q-63 0 -113.5 -50t-73.5 -139l-119 31q15 55 41.5 104.5t65 88t88.5 62t112 26.5zM374 1466l128 130l132 -132l-130 -130z" />
    <glyph glyph-name="uni062E.init" unicode="&#x62e;" horiz-adv-x="1404" arabic-form="initial" 
d="M428 853q31 0 79.5 -11.5t108.5 -30.5t127 -43.5t134 -51t130 -52.5t115.5 -48t90 -37.5t53.5 -21.5l17 -111q-99 -72 -184 -133t-170 -110.5t-176 -87.5t-202 -63.5t-248 -38.5t-313 -13v123q150 -1 268 8.5t215.5 29t180 49.5t161.5 71t159.5 92.5t173.5 114.5
q-69 26 -142.5 54t-145.5 55t-140 51t-125 42.5t-100.5 29t-67.5 10.5q-63 0 -113.5 -50t-73.5 -139l-119 31q15 58 42.5 109t66.5 89t88.5 60.5t109.5 22.5zM308 1261l128 130l132 -132l-130 -130z" />
    <glyph glyph-name="uni062E.medi" unicode="&#x62e;" horiz-adv-x="1527" arabic-form="medial" 
d="M1541 0h-72q-33 0 -73 5t-79.5 15t-74 24.5t-57.5 32.5q-45 36 -72.5 84.5t-36.5 106.5q-68 -43 -137.5 -80t-144.5 -67t-158.5 -52.5t-181 -37.5t-211.5 -23t-250 -8v123q150 0 271.5 9t224 28t191 48.5t172 69.5t167.5 91.5t177 114.5q-69 26 -142.5 54.5t-145.5 55.5
t-139.5 52t-124.5 43.5t-100.5 29.5t-67.5 11q-63 0 -113.5 -50t-73.5 -139l-119 31q15 58 42.5 109t66.5 89t88.5 60.5t109.5 22.5q31 0 79.5 -11.5t108.5 -30.5t127 -43.5t134 -51t130 -52.5t115.5 -48t90 -37.5t53.5 -21.5l17 -111q-38 -28 -74.5 -54t-71.5 -51
q0 -53 22 -94t60 -68.5t90 -41.5t111 -14h72v-123zM313 1261l128 130l132 -132l-130 -130z" />
    <glyph glyph-name="uni062E.fina" unicode="&#x62e;" horiz-adv-x="1576" arabic-form="final" 
d="M464 877q23 -3 39 -5t36.5 -6.5t50 -13.5t78 -27.5t121 -48t179.5 -74.5q69 -29 133 -57t113.5 -49.5t79.5 -35l30 -13.5l-4 -114q-1 -1 -44 -16.5t-123 -45.5v-54q0 -54 20 -91t51.5 -60t70 -33t76.5 -10h225v-123h-225q-67 0 -127 20t-106 57q-53 44 -80.5 104.5
t-27.5 135.5v9q-69 -26 -151.5 -57t-178.5 -67q-46 -17 -94.5 -34.5t-96.5 -38t-94.5 -46t-87.5 -59.5q-68 -54 -97.5 -123t-24.5 -163q3 -71 29.5 -126t70 -96.5t101 -70.5t121 -47t130.5 -26t131 -8h438v-123h-438q-138 0 -263 30t-222 91t-156 153t-65 217
q-12 244 168 388q44 36 93.5 63.5t101.5 50.5t105.5 43t106.5 40q77 29 154.5 55t147.5 48.5t129 41t100 33.5q-67 29 -140.5 59.5t-147 59.5t-143 54.5t-127.5 44.5t-101.5 30t-65.5 11q-63 0 -113.5 -50t-73.5 -139l-119 31q15 55 41.5 104.5t65 88t88.5 62t112 26.5z
M385 1259l128 130l132 -132l-130 -130z" />
    <glyph glyph-name="uni0630" unicode="&#x630;" horiz-adv-x="1072" arabic-form="isolated" 
d="M574 -8q-76 0 -154 12t-146 34.5t-119 52.5l-53 31l63 106l53 -32q42 -25 100 -43t122 -27.5t129.5 -10t121.5 9.5q66 11 111 39t62 69q15 36 7.5 79.5t-37.5 88.5q-77 115 -132 198t-93 140.5t-61 92.5t-35.5 54t-17 25.5t-4.5 7.5l-33 52l104 66q8 -14 18.5 -29.5
t26.5 -40.5t41.5 -63.5t64 -97t93.5 -141t130 -196.5q48 -72 58.5 -145t-17.5 -139q-30 -71 -98 -117.5t-167 -63.5q-63 -12 -138 -12zM383 1418l128 130l132 -132l-130 -130z" />
    <glyph glyph-name="uni0630.fina" unicode="&#x630;" horiz-adv-x="1262" arabic-form="final" 
d="M1271 123v-123h-16q-37 0 -76 14t-76.5 39t-71 58t-58.5 71q-1 -2 -1 -3t-1 -2q-22 -52 -65 -88.5t-97.5 -60t-117 -34t-123.5 -10.5q-66 0 -124 6.5t-113.5 21.5t-113 40t-121.5 62l63 106l52 -32q42 -25 100 -43t122.5 -27.5t130 -10t121.5 9.5q66 11 113.5 38.5
t64.5 68.5q15 36 4.5 80t-39.5 89l-376 570l103 66l405 -613q37 -57 73.5 -109.5t73 -93.5t73.5 -65.5t75 -24.5h16zM418 1418l128 130l132 -132l-130 -130z" />
    <glyph glyph-name="uni0688" unicode="&#x688;" horiz-adv-x="1084" arabic-form="isolated" 
d="M574 -8q-76 0 -154 12t-146 34.5t-119 52.5l-53 31l63 106l53 -32q42 -25 100 -43t122 -27.5t129.5 -10t121.5 9.5q66 11 111 39t62 69q15 36 7.5 79.5t-37.5 88.5q-77 115 -132 198t-93 140.5t-61 92.5t-35.5 54t-17 25.5t-4.5 7.5l-33 52l104 66q8 -14 18.5 -29.5
t26.5 -40.5t41.5 -63.5t64 -97t93.5 -141t130 -196.5q48 -72 58.5 -145t-17.5 -139q-30 -71 -98 -117.5t-167 -63.5q-63 -12 -138 -12zM222 1252v85h100l47 73v485h83v-363q38 46 84 77t103 31q33 0 64.5 -12t56.5 -37.5t40.5 -64.5t15.5 -92q0 -51 -17 -85.5t-43 -56
t-58.5 -31t-63.5 -9.5h-412zM634 1337q42 0 69 23t27 74q0 58 -23.5 89.5t-67.5 31.5q-32 0 -61 -20t-56 -51.5t-51.5 -69.5t-45.5 -74q-1 -1 -1 -3h210z" />
    <glyph glyph-name="uni0688.fina" unicode="&#x688;" horiz-adv-x="1264" arabic-form="final" 
d="M1271 123v-123h-16q-37 0 -76 14t-76.5 39t-71 58t-58.5 71q-1 -2 -1 -3t-1 -2q-22 -52 -65 -88.5t-97.5 -60t-117 -34t-123.5 -10.5q-66 0 -124 6.5t-113.5 21.5t-113 40t-121.5 62l63 106l52 -32q42 -25 100 -43t122.5 -27.5t130 -10t121.5 9.5q66 11 113.5 38.5
t64.5 68.5q15 36 4.5 80t-39.5 89l-376 570l103 66l405 -613q37 -57 73.5 -109.5t73 -93.5t73.5 -65.5t75 -24.5h16zM252 1248v85h100l47 73v485h83v-363q38 46 84 77t103 31q33 0 64.5 -12t56.5 -37.5t40.5 -64.5t15.5 -92q0 -51 -17 -85.5t-43 -56t-58.5 -31t-63.5 -9.5
h-412zM664 1333q42 0 69 23t27 74q0 58 -23.5 89.5t-67.5 31.5q-32 0 -61 -20t-56 -51.5t-51.5 -69.5t-45.5 -74q-1 -1 -1 -3h210z" />
    <glyph glyph-name="uni0632" unicode="&#x632;" horiz-adv-x="795" arabic-form="isolated" 
d="M-91 -553v122h139q235 0 344 123q100 114 100 341v642h123v-642q0 -290 -143.5 -438t-423.5 -148h-139zM409 1109l128 130l132 -132l-130 -130z" />
    <glyph glyph-name="uni0632.fina" unicode="&#x632;" horiz-adv-x="856" arabic-form="final" 
d="M874 0h-46q-62 0 -117.5 17t-100.5 49v-33q0 -290 -143.5 -438t-423.5 -148h-139v122h139q235 0 344 123q100 114 100 341v276v366h123v-358q0 -54 20 -91t51.5 -60t70 -33t76.5 -10h46v-123zM411 1081l128 130l132 -132l-130 -130z" />
    <glyph glyph-name="uni0691" unicode="&#x691;" horiz-adv-x="785" arabic-form="isolated" 
d="M-91 -553v122h139q235 0 344 123q100 114 100 341v642h123v-642q0 -290 -143.5 -438t-423.5 -148h-139zM183 902v85h100l47 73v485h83v-363q38 46 84 77t103 31q33 0 64.5 -12t56.5 -37.5t40.5 -64.5t15.5 -92q0 -51 -17 -85.5t-43 -56t-58.5 -31t-63.5 -9.5h-412z
M595 987q42 0 69 23t27 74q0 58 -23.5 89.5t-67.5 31.5q-32 0 -61 -20t-56 -51.5t-51.5 -69.5t-45.5 -74q-1 -1 -1 -3h210z" />
    <glyph glyph-name="uni0691.fina" unicode="&#x691;" horiz-adv-x="856" arabic-form="final" 
d="M874 0h-46q-62 0 -117.5 17t-100.5 49v-33q0 -290 -143.5 -438t-423.5 -148h-139v122h139q235 0 344 123q100 114 100 341v276v366h123v-358q0 -54 20 -91t51.5 -60t70 -33t76.5 -10h46v-123zM161 887v85h100l47 73v485h83v-363q38 46 84 77t103 31q33 0 64.5 -12
t56.5 -37.5t40.5 -64.5t15.5 -92q0 -51 -17 -85.5t-43 -56t-58.5 -31t-63.5 -9.5h-412zM573 972q42 0 69 23t27 74q0 58 -23.5 89.5t-67.5 31.5q-32 0 -61 -20t-56 -51.5t-51.5 -69.5t-45.5 -74q-1 -1 -1 -3h210z" />
    <glyph glyph-name="uni0698" unicode="&#x698;" horiz-adv-x="859" arabic-form="isolated" 
d="M-91 -553v122h139q235 0 344 123q100 114 100 341v642h123v-642q0 -290 -143.5 -438t-423.5 -148h-139zM449 1078l-124 -125l-124 123l125 126zM852 1081l-124 -124l-126 124l125 125zM654 1353l-124 -124l-126 124l125 125z" />
    <glyph glyph-name="uni0698.fina" unicode="&#x698;" horiz-adv-x="852" arabic-form="final" 
d="M874 0h-46q-62 0 -117.5 17t-100.5 49v-33q0 -290 -143.5 -438t-423.5 -148h-139v122h139q235 0 344 123q100 114 100 341v276v366h123v-358q0 -54 20 -91t51.5 -60t70 -33t76.5 -10h46v-123zM444 1082l-124 -125l-124 123l125 126zM847 1085l-124 -124l-126 124l125 125
zM649 1357l-124 -124l-126 124l125 125z" />
    <glyph glyph-name="uni0634" unicode="&#x634;" horiz-adv-x="2742" arabic-form="isolated" 
d="M2527 802q1 -3 8 -27t17 -61t21 -84t20.5 -96.5t16 -98t6.5 -88.5q0 -51 -9.5 -92.5t-25 -73.5t-34 -56t-36.5 -40q-44 -40 -100 -61.5t-119 -22.5v-1q-179 0 -278 99q-8 8 -15 17t-14 19q-11 -16 -23 -28.5t-23 -22.5q-46 -41 -104.5 -62.5t-123.5 -21.5q-163 0 -255 85
v-136q0 -226 -106 -348q-66 -77 -170 -114q-107 -40 -260 -40h-239q-144 0 -261.5 63t-190.5 179q-25 40 -43.5 84t-29.5 94q-24 102 -20 217q12 250 152 542l111 -53q-61 -126 -95.5 -243t-43 -221t9.5 -193.5t63 -161.5q56 -88 146.5 -136t201.5 -48h239q241 0 337 111
q76 88 76 268v726h123v-220q0 -196 77 -273q29 -30 72.5 -44.5t105.5 -14.5q37 0 74.5 12t68.5 38t50.5 68.5t19.5 104.5v329h123v-329q0 -220 240 -223v1q36 0 72.5 11.5t66 38t48.5 69t19 104.5q0 36 -6 80.5t-15.5 91t-20 90.5t-20 78.5t-15.5 56t-6 22.5l117 36v0z
M1878 1109l-124 -125l-124 123l125 126zM2281 1112l-124 -124l-126 124l125 125zM2083 1384l-124 -124l-126 124l125 125z" />
    <glyph glyph-name="uni0634.init" unicode="&#x634;" horiz-adv-x="1767" arabic-form="initial" 
d="M-21 123h189q37 0 74.5 12t68.5 38t50.5 68.5t19.5 104.5v329h123v-329q0 -220 240 -223q37 0 74.5 12t68.5 38t50.5 68.5t19.5 104.5v329h123v-329q0 -220 240 -223v1q36 0 72.5 11.5t66 38t48.5 69t19 104.5q0 36 -6 80.5t-15.5 91t-20 90.5t-20 78.5t-15.5 56t-6 22.5
l117 36q1 -3 8 -27t17 -61t21 -84t20.5 -96.5t16 -98t6.5 -88.5q0 -51 -9.5 -92.5t-25 -73.5t-34 -56t-36.5 -40q-44 -40 -100 -61.5t-119 -22.5v-1q-179 0 -278 99q-8 8 -15 17t-14 19q-11 -16 -23 -28.5t-23 -22.5q-46 -41 -107 -62.5t-126 -21.5q-181 0 -280 99
q-8 8 -15 17t-14 19q-11 -16 -23 -28.5t-23 -22.5q-46 -41 -104.5 -62.5t-123.5 -21.5h-177v123zM950 1118l-124 -125l-124 123l125 126zM1353 1121l-124 -124l-126 124l125 125zM1155 1393l-124 -124l-126 124l125 125z" />
    <glyph glyph-name="uni0634.medi" unicode="&#x634;" horiz-adv-x="1784" arabic-form="medial" 
d="M1746 0q-47 0 -91.5 7.5t-83.5 23.5t-71 42t-53 62q-11 -16 -23 -28.5t-23 -22.5q-46 -41 -102 -62.5t-121 -21.5q-52 0 -93.5 8.5t-75 25t-62 42t-53.5 59.5q-48 -65 -117.5 -100t-152.5 -35q-90 0 -151.5 25t-110.5 74q-8 8 -15 17t-14 19q-11 -16 -23 -28.5t-23 -22.5
q-46 -41 -104.5 -62.5t-123.5 -21.5h-86v123h98q37 0 74.5 12t68.5 38t50.5 68.5t19.5 104.5v329h123v-329q0 -110 51.5 -166t170.5 -57q37 0 73.5 12t65.5 38t47 68.5t18 104.5v329h123v-329q0 -110 52 -166t171 -57q37 0 74 12t66.5 38t48 68.5t18.5 104.5v329h123v-329
q0 -220 238 -223h53v-123h-54v0zM808 1082l-124 -125l-124 123l125 126zM1211 1085l-124 -124l-126 124l125 125zM1013 1357l-124 -124l-126 124l125 125z" />
    <glyph glyph-name="uni0634.fina" unicode="&#x634;" horiz-adv-x="2920" arabic-form="final" 
d="M2891 0q-105 2 -180.5 33t-126.5 102q-48 -66 -119.5 -100.5t-154.5 -34.5q-105 0 -180.5 33t-126.5 102q-45 -73 -118 -104t-156 -31q-163 0 -255 85v-136q0 -226 -106 -348q-66 -77 -170 -114q-107 -40 -260 -40h-239q-144 0 -261.5 63t-190.5 179q-25 40 -43.5 84
t-29.5 94q-24 102 -20 217q12 250 152 542l111 -53q-61 -126 -95.5 -243t-43 -221t9.5 -193.5t63 -161.5q56 -88 146.5 -136t201.5 -48h239q241 0 337 111q76 88 76 268v726h123v-220q0 -196 77 -273q29 -30 72.5 -44.5t105.5 -14.5q37 0 74.5 12t68.5 38t50.5 68.5
t19.5 104.5v329h123v-329q0 -110 62.5 -165.5t182.5 -57.5q37 0 74.5 12t68.5 38t50.5 68.5t19.5 104.5v329h123v-329q0 -110 62.5 -165.5t182.5 -57.5h56v-123h-56v0zM1917 1082l-124 -125l-124 123l125 126zM2320 1085l-124 -124l-126 124l125 125zM2122 1357l-124 -124
l-126 124l125 125z" />
    <glyph glyph-name="uni0636" unicode="&#x636;" horiz-adv-x="2760" arabic-form="isolated" 
d="M2292 854q59 0 109 -20t90.5 -54.5t71.5 -80.5t51.5 -99t31 -110t10.5 -113q0 -67 -14.5 -118t-37 -89t-50.5 -64t-55 -43q-34 -21 -68.5 -33.5t-65.5 -19t-56.5 -8.5t-40.5 -2h-572q-62 0 -117 17t-100 49v-118q0 -73 -14 -143.5t-46.5 -131.5t-85.5 -109t-131 -76
q-108 -38 -259 -38h-239q-146 0 -265 63.5t-193 181.5q-55 88 -76.5 187.5t-17.5 205.5q5 124 43 257.5t107 279.5l111 -53q-60 -125 -94 -241t-42.5 -219t10 -192t63.5 -160q57 -90 149 -139t205 -49h239q108 0 186 20t128.5 65t74.5 116.5t24 174.5v724h123v-356
q0 -68 31 -109.5t76 -61.5q40 61 77.5 125t77.5 127.5t83.5 125.5t95.5 121q94 107 185.5 158.5t186.5 51.5zM2268 123q20 0 47.5 3t57 12t58 26t51.5 45.5t37 69.5t14 98q0 86 -21 152.5t-55.5 111.5t-77.5 68t-87 23q-67 0 -136 -42t-144 -127q-35 -40 -69 -86
t-69.5 -100.5t-74 -117.5t-82.5 -136h551zM2129 1229l128 130l132 -132l-130 -130z" />
    <glyph glyph-name="uni0636.init" unicode="&#x636;" horiz-adv-x="1807" arabic-form="initial" 
d="M1332 857q65 0 116.5 -20.5t91.5 -55.5t68.5 -82t47.5 -100.5t27.5 -110t8.5 -111.5q0 -66 -14 -117t-35.5 -89.5t-48.5 -64.5t-53 -43q-32 -21 -64.5 -33t-62.5 -19t-55.5 -9t-43.5 -2h-579q-67 0 -127 19.5t-105 57.5q-27 22 -45 46q-4 -5 -8 -9.5t-8 -9.5
q-98 -104 -299 -104h-155v123h155q149 0 209 65q43 46 43 124v363h123v-358q0 -67 29.5 -108t73.5 -62l67 109q59 97 125 199t143 189q95 108 187 160.5t188 52.5zM1315 123q19 0 45 3t54.5 12t56 26t49.5 45.5t35.5 69.5t13.5 98q0 58 -11.5 121.5t-38.5 115.5t-72.5 86
t-114.5 34q-133 0 -283 -171q-72 -81 -135 -179t-120 -192q-11 -17 -21.5 -34.5t-21.5 -34.5h564zM1167 1238l128 130l132 -132l-130 -130z" />
    <glyph glyph-name="uni0636.medi" unicode="&#x636;" horiz-adv-x="1854" arabic-form="medial" 
d="M736 0q-67 0 -127 19.5t-105 57.5q-27 22 -45 46q-4 -5 -8 -9.5t-8 -9.5q-98 -104 -299 -104h-155v123h155q149 0 209 65q43 46 43 124v363h123v-358q0 -67 29.5 -108t73.5 -62l67 109q59 97 125 199t143 189q95 108 187 160.5t188 52.5q65 0 116.5 -20.5t91.5 -55.5
t68.5 -82t47.5 -100.5t27.5 -110t8.5 -111.5q0 -90 -24.5 -152t-58.5 -102h262v-123h-1135zM794 192q-11 -17 -21.5 -34.5t-21.5 -34.5h576q20 1 46 5t53 14t52.5 27.5t45.5 45.5t32.5 67.5t12.5 94.5q0 58 -11.5 121.5t-38.5 115.5t-72.5 86t-114.5 34q-133 0 -283 -171
q-72 -81 -135 -179t-120 -192zM1184 1243l128 130l132 -132l-130 -130z" />
    <glyph glyph-name="uni0636.fina" unicode="&#x636;" horiz-adv-x="2816" arabic-form="final" 
d="M2292 854q59 0 109 -20t90.5 -54.5t71.5 -80.5t51.5 -99t31 -110t10.5 -113q0 -91 -25.5 -152.5t-60.5 -101.5h261v-123h-549h-14h-572q-62 0 -117 17t-100 49v-118q0 -73 -14 -143.5t-46.5 -131.5t-85.5 -109t-131 -76q-108 -38 -259 -38h-239q-146 0 -265 63.5
t-193 181.5q-55 88 -76.5 187.5t-17.5 205.5q5 124 43 257.5t107 279.5l111 -53q-60 -125 -94 -241t-42.5 -219t10 -192t63.5 -160q57 -90 149 -139t205 -49h239q108 0 186 20t128.5 65t74.5 116.5t24 174.5v724h123v-356q0 -68 31 -109.5t76 -61.5q40 61 77.5 125
t77.5 127.5t83.5 125.5t95.5 121q94 107 185.5 158.5t186.5 51.5zM2268 123q20 0 47.5 3t57 12t58 26t51.5 45.5t37 69.5t14 98q0 86 -21 152.5t-55.5 111.5t-77.5 68t-87 23q-67 0 -136 -42t-144 -127q-35 -40 -69 -86t-69.5 -100.5t-74 -117.5t-82.5 -136h551zM2152 1243
l128 130l132 -132l-130 -130z" />
    <glyph glyph-name="uni0638" unicode="&#x638;" horiz-adv-x="1532" arabic-form="isolated" 
d="M1297 718q81 -120 81 -340q0 -67 -16.5 -118.5t-42 -90t-57 -64.5t-61.5 -43q-38 -21 -76.5 -33.5t-72 -19t-59 -8t-37.5 -1.5h-867v123h236q22 35 45 73.5t47 80.5l24 42v1107h123v-907q24 36 49.5 70t52.5 66q173 204 356 204q90 0 159.5 -36t115.5 -105zM956 123
q12 0 39.5 2t60.5 10.5t68.5 24.5t64.5 44.5t47.5 70.5t18.5 103q0 181 -60 273q-57 85 -173 85q-49 0 -96 -22.5t-91.5 -61t-86 -89.5t-80.5 -109t-75.5 -119t-69.5 -119q-27 -48 -54 -93h487zM911 1287l128 130l132 -132l-130 -130z" />
    <glyph glyph-name="uni0638.init" unicode="&#x638;" horiz-adv-x="1395" arabic-form="initial" 
d="M1168 718q81 -120 81 -340q0 -67 -16.5 -118.5t-42 -90t-57 -64.5t-61.5 -43q-38 -21 -76.5 -33.5t-72 -19t-59 -8t-37.5 -1.5h-862v123h231q22 35 45 73.5t47 80.5l24 42v1107h123v-907q24 36 49.5 70t52.5 66q173 204 356 204q90 0 159.5 -36t115.5 -105zM827 123
q13 0 40 2t60 10.5t68.5 24.5t64.5 44.5t47.5 70.5t18.5 103q0 181 -60 273q-57 85 -173 85q-49 0 -96 -22.5t-91.5 -61t-86 -89.5t-80.5 -109t-75.5 -119t-69.5 -119q-27 -48 -54 -93h487zM789 1282l128 130l132 -132l-130 -130z" />
    <glyph glyph-name="uni0638.medi" unicode="&#x638;" horiz-adv-x="1452" arabic-form="medial" 
d="M1464 0h-1472v123h250q22 35 45 73.5t47 80.5l24 42v1107h123v-907q24 36 49.5 70t52.5 66q173 204 356 204q90 0 159.5 -36t115.5 -105q81 -120 81 -340q0 -90 -28 -152.5t-68 -102.5h266zM873 123q13 0 40 2t60 10.5t68.5 24.5t64.5 44.5t47.5 70.5t18.5 103
q0 181 -60 273q-57 85 -173 85q-49 0 -96 -22.5t-91.5 -61t-86 -89.5t-80.5 -109t-75.5 -119t-69.5 -119q-27 -48 -54 -93h487zM810 1283l128 130l132 -132l-130 -130z" />
    <glyph glyph-name="uni0638.fina" unicode="&#x638;" horiz-adv-x="1588" arabic-form="final" 
d="M1613 0h-1501v123h238q22 35 45 73.5t47 80.5l24 42v1107h123v-907q24 36 49.5 70t52.5 66q173 204 356 204q90 0 159.5 -36t115.5 -105q81 -120 81 -340q0 -90 -28 -152.5t-68 -102.5h307zM981 123q12 0 39.5 2t60.5 10.5t68.5 24.5t64.5 44.5t47.5 70.5t18.5 103
q0 181 -60 273q-57 85 -173 85q-50 0 -96.5 -22.5t-91 -61t-86 -89.5t-80.5 -109t-75.5 -119t-69.5 -119q-27 -48 -54 -93h487zM931 1284l128 130l132 -132l-130 -130z" />
    <glyph glyph-name="uni063A" unicode="&#x63a;" horiz-adv-x="1368" arabic-form="isolated" 
d="M615 361q-62 0 -132.5 -23t-131.5 -71.5t-101 -123t-40 -176.5q0 -76 21.5 -134.5t58 -102.5t86 -74.5t106 -49t117 -27t119.5 -8.5h475v-123h-475q-118 0 -231 29.5t-202 92t-143.5 161t-54.5 236.5q0 111 47 212.5t135 175.5q73 61 165.5 95t186.5 34
q-14 10 -26.5 19.5t-24.5 20.5q-35 30 -63.5 66.5t-48.5 77t-31.5 85t-11.5 89.5q0 77 33.5 146t88.5 121.5t126 83t147 30.5q47 0 90.5 -10.5t89.5 -30t95.5 -46.5t108.5 -61l-61 -107q-41 23 -83.5 46.5t-84 42.5t-81.5 31t-74 12q-48 0 -96.5 -19.5t-87.5 -54t-63.5 -82
t-24.5 -102.5q0 -60 29.5 -119.5t83.5 -106.5q67 -59 166 -92t225 -40l190 -1v-123l-194 1h-423v0zM703 1590l128 130l132 -132l-130 -130z" />
    <glyph glyph-name="uni063A.init" unicode="&#x63a;" horiz-adv-x="1187" arabic-form="initial" 
d="M1026 123v-123h-198h-841v123h413q-42 27 -77 65t-59.5 83t-38.5 96t-14 105q0 79 32.5 149t87.5 122.5t127 83.5t150 31q58 0 107.5 -14t95 -35.5t89 -48.5t88.5 -53l-62 -106q-39 23 -78 47t-78 43.5t-79.5 31.5t-82.5 12q-49 0 -98 -19.5t-88 -54t-63.5 -83
t-24.5 -106.5q0 -19 3.5 -45.5t15 -56.5t32.5 -62t56 -62q32 -27 76.5 -49.5t96 -39t107 -25.5t111.5 -9h194zM487 1264l128 130l132 -132l-130 -130z" />
    <glyph glyph-name="uni063A.medi" unicode="&#x63a;" horiz-adv-x="1262" arabic-form="medial" 
d="M900 0q-11 0 -25.5 3t-36 13t-52 28.5t-72.5 48.5q-14 10 -29 21.5t-31 23.5q-126 -69 -277 -103.5t-337 -34.5h-61v123h61q165 0 289.5 27.5t218.5 72.5q-15 12 -30 24.5t-31 26.5q-57 48 -110 95t-93.5 83.5t-65.5 59.5l-25 23l-20 19v27q0 133 73 204q76 72 223 72
h337q41 0 79 -10t73 -29q70 -41 102 -108q28 -59 17.5 -121.5t-57.5 -118.5q-55 -68 -117 -134.5t-140 -125.5l10 -8q34 -25 58 -40.5t39 -23.5t22.5 -11t9.5 -4h369v-123h-371zM297 607q16 -15 42.5 -39.5t60.5 -55t74 -65t82 -70.5q29 -25 55 -47t51 -42q86 59 148.5 127
t115.5 133q8 10 15.5 22t11.5 26t3.5 29.5t-7.5 31.5q-17 35 -56 56t-87 21h-337q-49 0 -81.5 -8.5t-52 -25t-28 -40t-10.5 -53.5zM525 1272l128 130l132 -132l-130 -130z" />
    <glyph glyph-name="uni063A.fina" unicode="&#x63a;" horiz-adv-x="1368" arabic-form="final" 
d="M711 364q51 26 98.5 53t88.5 55t74 58.5t56 63.5q25 38 22 73.5t-24 63t-55 44t-69 16.5h-338q-38 -1 -68.5 -7.5t-52.5 -21t-35 -38t-16 -58.5q11 -11 31 -30.5t46 -45t56.5 -54.5t62.5 -59t63.5 -59t59.5 -54zM902 914q38 0 74 -10t67.5 -29t57.5 -45t43 -59
q32 -60 28 -124.5t-42 -121.5q-26 -38 -60.5 -71.5t-75.5 -64t-87.5 -58t-96.5 -54.5q21 -19 40.5 -35t38.5 -30q36 -29 60 -46t40 -26.5t23.5 -13t10.5 -4.5h359v-122h-362q-11 0 -26 3.5t-37.5 14t-53.5 31t-75 54.5q-29 23 -63.5 51t-72.5 62q-51 -27 -107.5 -56
t-111.5 -62t-104.5 -70.5t-87.5 -82.5t-60.5 -98t-22.5 -116q0 -71 21.5 -125.5t59.5 -95.5t89.5 -69t111.5 -45t125.5 -24.5t131.5 -7.5h445v-123h-445q-83 -2 -164.5 9.5t-155 36.5t-136 64.5t-108.5 94.5t-72 126t-26 159q0 109 45 195.5t118.5 155.5t166.5 123.5
t189 98.5l-2 2q-59 54 -114 106t-97.5 93.5t-68 67t-26.5 25.5l-18 43q1 134 79.5 203.5t216.5 69.5h338zM586 1296l128 130l132 -132l-130 -130z" />
    <glyph glyph-name="uni06A9.init" unicode="&#x6a9;" horiz-adv-x="1153" arabic-form="initial" 
d="M1151 1460l-839 -369q66 -56 177 -158.5t254 -254.5q126 -133 172 -259q24 -66 25 -126.5t-21 -111.5q-11 -25 -34.5 -56.5t-67 -59t-109.5 -46.5t-162 -19h-569v123h569q113 0 182 33q59 28 78 74q28 65 -12.5 161t-140.5 203q-107 114 -197.5 200.5t-156.5 145
t-103 88.5t-38 30l13 105l930 410z" />
    <glyph glyph-name="uni06A9.medi" unicode="&#x6a9;" horiz-adv-x="1258" arabic-form="medial" 
d="M802 436q60 -81 108 -140t98 -97.5t110 -57t145 -18.5v-123q-95 0 -166.5 20t-129 57.5t-106.5 90t-100 118.5q-4 -22 -10.5 -41t-14.5 -36q-29 -63 -79.5 -103.5t-112.5 -64t-131 -32.5t-136 -9h-296v123h296q48 2 100.5 7.5t100.5 20.5t87 42t61 71q17 34 18 71.5
t-9.5 75.5t-30 74.5t-43.5 68.5q-40 54 -73 98.5t-62.5 84.5t-56.5 76.5t-55.5 75t-59.5 80.5t-68 92h1l24 92l939 423l50 -112l-869 -392q115 -158 232 -315.5t239 -320.5z" />
    <glyph glyph-name="uni0641" unicode="&#x641;" horiz-adv-x="2104" arabic-form="isolated" 
d="M1462 123q88 5 161 12.5t127.5 31.5t89.5 71t47 132q-42 -7 -100 -13.5t-118 -6.5q-94 0 -171 20.5t-132 63.5t-85 109t-30 157q0 79 26.5 150.5t74.5 125t116 84t151 28.5q85 -1 147 -29t106 -75.5t72 -110.5t43.5 -134t21.5 -146.5t6 -146.5q0 -131 -39.5 -217
t-112 -137t-174.5 -71.5t-227 -20.5h-411q-152 0 -281.5 2.5t-235.5 17t-187.5 45.5t-137.5 89q-40 42 -59.5 97.5t-19.5 124.5q0 49 9 105.5t19.5 106t19.5 83.5t10 37l118 -34q0 -1 -4 -15t-10 -38t-12.5 -54.5t-12.5 -63.5t-10 -66t-4 -61q0 -95 57 -146.5t162 -75
t253.5 -27.5t331.5 -4h405zM1669 473q31 0 62.5 2t60.5 5.5t55 7.5t45 7q-1 44 -5 95.5t-14 104t-28.5 101t-48.5 86.5t-73.5 60.5t-103.5 22.5q-63 0 -109.5 -23t-76.5 -60t-44.5 -85t-14.5 -97q0 -68 22.5 -111.5t62.5 -69t94 -36t116 -10.5zM1474 1470l128 130l132 -132
l-130 -130z" />
    <glyph glyph-name="uni0641.init" unicode="&#x641;" horiz-adv-x="1023" arabic-form="initial" 
d="M575 473q31 0 62.5 2t60.5 5.5t55 7.5t45 7q-1 44 -5 95.5t-14 104t-28.5 101t-48.5 86.5t-73.5 60.5t-103.5 22.5q-63 0 -109.5 -23t-76.5 -60t-44.5 -85t-14.5 -97q0 -68 22.5 -111.5t62.5 -69t94 -36t116 -10.5zM525 1088q84 -1 146.5 -29t106.5 -75.5t72 -110.5
t43.5 -134t21.5 -146.5t6 -146.5q0 -131 -39.5 -217t-112 -137t-174.5 -71.5t-227 -20.5h-387v123h387q88 5 161 12.5t127.5 31.5t89.5 71t47 132q-42 -7 -100 -13.5t-118 -6.5q-94 0 -171 20.5t-132 63.5t-85 109t-30 157q0 79 26.5 150.5t74.5 125t116 84t151 28.5z
M375 1488l128 130l132 -132l-130 -130z" />
    <glyph glyph-name="uni0641.medi" unicode="&#x641;" horiz-adv-x="1096" arabic-form="medial" 
d="M567 200q21 8 40.5 17t37.5 20q30 17 61 40.5t56.5 53.5t41.5 68t16 83q0 48 -17 95t-49 84t-77.5 60t-103.5 23q-61 0 -110 -18.5t-84 -53t-54 -82.5t-19 -108q0 -48 18.5 -87t48 -71t65 -56t70.5 -42q14 -7 28.5 -13.5t30.5 -12.5zM573 867q78 2 146 -29.5t117.5 -85.5
t78 -124.5t28.5 -145.5q0 -98 -52.5 -183t-152.5 -150q130 -26 270 -26h99v-123h-99q-120 0 -232 17.5t-209 51.5q-99 -34 -216.5 -51.5t-252.5 -17.5h-123v123h123q160 0 296 26q-45 28 -84 64t-67 78t-44 90t-16 101q0 84 29 155.5t80.5 123t123 80t157.5 26.5zM436 1286
l128 130l132 -132l-130 -130z" />
    <glyph glyph-name="uni0641.fina" unicode="&#x641;" horiz-adv-x="2132" arabic-form="final" 
d="M1175 123q160 0 296 26q-45 28 -84 64t-67 78t-44 90t-16 101q0 84 29 155.5t80.5 123t123 80t157.5 26.5q78 2 146 -29.5t117.5 -85.5t78 -124.5t28.5 -145.5q0 -98 -52.5 -183t-152.5 -150q130 -26 270 -26h71v-123h-71q-120 0 -232 17.5t-209 51.5
q-99 -34 -216.5 -51.5t-252.5 -17.5h-123q-152 0 -281.5 2.5t-236 17t-188 45.5t-137.5 89q-40 42 -59.5 97.5t-19.5 124.5q0 49 9 105.5t19.5 106t19.5 83.5t10 37l118 -34q0 -1 -4 -15t-10 -38t-12.5 -54.5t-12.5 -63.5t-10 -66t-4 -61q0 -95 56.5 -146.5t160.5 -75
t251.5 -27.5t330.5 -4h123zM1644 200q21 8 40.5 17t37.5 20q30 17 61 40.5t56.5 53.5t41.5 68t16 83q0 48 -17 95t-49 84t-77.5 60t-103.5 23q-61 0 -110 -18.5t-84 -53t-54 -82.5t-19 -108q0 -48 18.5 -87t48 -71t65 -56t70.5 -42q14 -7 28.5 -13.5t30.5 -12.5zM1514 1267
l128 130l132 -132l-130 -130z" />
    <glyph glyph-name="veh.isol" unicode="&#x6a4;" horiz-adv-x="2097" arabic-form="isolated" 
d="M1462 123q88 5 161 12.5t127.5 31.5t89.5 71t47 132q-42 -7 -100 -13.5t-118 -6.5q-94 0 -171 20.5t-132 63.5t-85 109t-30 157q0 79 26.5 150.5t74.5 125t116 84t151 28.5q85 -1 147 -29t106 -75.5t72 -110.5t43.5 -134t21.5 -146.5t6 -146.5q0 -131 -39.5 -217
t-112 -137t-174.5 -71.5t-227 -20.5h-411q-152 0 -281.5 2.5t-235.5 17t-187.5 45.5t-137.5 89q-40 42 -59.5 97.5t-19.5 124.5q0 49 9 105.5t19.5 106t19.5 83.5t10 37l118 -34q0 -1 -4 -15t-10 -38t-12.5 -54.5t-12.5 -63.5t-10 -66t-4 -61q0 -95 57 -146.5t162 -75
t253.5 -27.5t331.5 -4h405zM1669 473q31 0 62.5 2t60.5 5.5t55 7.5t45 7q-1 44 -5 95.5t-14 104t-28.5 101t-48.5 86.5t-73.5 60.5t-103.5 22.5q-63 0 -109.5 -23t-76.5 -60t-44.5 -85t-14.5 -97q0 -68 22.5 -111.5t62.5 -69t94 -36t116 -10.5zM1549 1432l-124 -125
l-124 123l125 126zM1952 1435l-124 -124l-126 124l125 125zM1754 1707l-124 -124l-126 124l125 125z" />
    <glyph glyph-name="veh.init" unicode="&#x6a4;" horiz-adv-x="997" arabic-form="initial" 
d="M575 473q31 0 62.5 2t60.5 5.5t55 7.5t45 7q-1 44 -5 95.5t-14 104t-28.5 101t-48.5 86.5t-73.5 60.5t-103.5 22.5q-63 0 -109.5 -23t-76.5 -60t-44.5 -85t-14.5 -97q0 -68 22.5 -111.5t62.5 -69t94 -36t116 -10.5zM525 1088q84 -1 146.5 -29t106.5 -75.5t72 -110.5
t43.5 -134t21.5 -146.5t6 -146.5q0 -131 -39.5 -217t-112 -137t-174.5 -71.5t-227 -20.5h-387v123h387q88 5 161 12.5t127.5 31.5t89.5 71t47 132q-42 -7 -100 -13.5t-118 -6.5q-94 0 -171 20.5t-132 63.5t-85 109t-30 157q0 79 26.5 150.5t74.5 125t116 84t151 28.5z
M442 1381l-124 -125l-124 123l125 126zM845 1384l-124 -124l-126 124l125 125zM647 1656l-124 -124l-126 124l125 125z" />
    <glyph glyph-name="veh.medi" unicode="&#x6a4;" horiz-adv-x="1092" arabic-form="medial" 
d="M567 200q21 8 40.5 17t37.5 20q30 17 61 40.5t56.5 53.5t41.5 68t16 83q0 48 -17 95t-49 84t-77.5 60t-103.5 23q-61 0 -110 -18.5t-84 -53t-54 -82.5t-19 -108q0 -48 18.5 -87t48 -71t65 -56t70.5 -42q14 -7 28.5 -13.5t30.5 -12.5zM573 867q78 2 146 -29.5t117.5 -85.5
t78 -124.5t28.5 -145.5q0 -98 -52.5 -183t-152.5 -150q130 -26 270 -26h99v-123h-99q-120 0 -232 17.5t-209 51.5q-99 -34 -216.5 -51.5t-252.5 -17.5h-123v123h123q160 0 296 26q-45 28 -84 64t-67 78t-44 90t-16 101q0 84 29 155.5t80.5 123t123 80t157.5 26.5zM459 1264
l-124 -125l-124 123l125 126zM862 1267l-124 -124l-126 124l125 125zM664 1539l-124 -124l-126 124l125 125z" />
    <glyph glyph-name="veh.fina" unicode="&#x6a4;" horiz-adv-x="2128" arabic-form="final" 
d="M1175 123q160 0 296 26q-45 28 -84 64t-67 78t-44 90t-16 101q0 84 29 155.5t80.5 123t123 80t157.5 26.5q78 2 146 -29.5t117.5 -85.5t78 -124.5t28.5 -145.5q0 -98 -52.5 -183t-152.5 -150q130 -26 270 -26h71v-123h-71q-120 0 -232 17.5t-209 51.5
q-99 -34 -216.5 -51.5t-252.5 -17.5h-123q-152 0 -281.5 2.5t-236 17t-188 45.5t-137.5 89q-40 42 -59.5 97.5t-19.5 124.5q0 49 9 105.5t19.5 106t19.5 83.5t10 37l118 -34q0 -1 -4 -15t-10 -38t-12.5 -54.5t-12.5 -63.5t-10 -66t-4 -61q0 -95 56.5 -146.5t160.5 -75
t251.5 -27.5t330.5 -4h123zM1644 200q21 8 40.5 17t37.5 20q30 17 61 40.5t56.5 53.5t41.5 68t16 83q0 48 -17 95t-49 84t-77.5 60t-103.5 23q-61 0 -110 -18.5t-84 -53t-54 -82.5t-19 -108q0 -48 18.5 -87t48 -71t65 -56t70.5 -42q14 -7 28.5 -13.5t30.5 -12.5zM1565 1247
l-124 -125l-124 123l125 126zM1968 1250l-124 -124l-126 124l125 125zM1770 1522l-124 -124l-126 124l125 125z" />
    <glyph glyph-name="uni0642.init" unicode="&#x642;" horiz-adv-x="1008" arabic-form="initial" 
d="M575 473q31 0 62.5 2t60.5 5.5t55 7.5t45 7q-1 44 -5 95.5t-14 104t-28.5 101t-48.5 86.5t-73.5 60.5t-103.5 22.5q-63 0 -109.5 -23t-76.5 -60t-44.5 -85t-14.5 -97q0 -68 22.5 -111.5t62.5 -69t94 -36t116 -10.5zM525 1088q84 -1 146.5 -29t106.5 -75.5t72 -110.5
t43.5 -134t21.5 -146.5t6 -146.5q0 -131 -39.5 -217t-112 -137t-174.5 -71.5t-227 -20.5h-387v123h387q88 5 161 12.5t127.5 31.5t89.5 71t47 132q-42 -7 -100 -13.5t-118 -6.5q-94 0 -171 20.5t-132 63.5t-85 109t-30 157q0 79 26.5 150.5t74.5 125t116 84t151 28.5z
M703 1306l-124 125q34 35 61.5 62.5t60.5 61.5l126 -125zM297 1308l-124 125q34 35 61.5 62.5t60.5 61.5l126 -125z" />
    <glyph glyph-name="uni0642.medi" unicode="&#x642;" horiz-adv-x="1096" arabic-form="medial" 
d="M567 200q21 8 40.5 17t37.5 20q30 17 61 40.5t56.5 53.5t41.5 68t16 83q0 48 -17 95t-49 84t-77.5 60t-103.5 23q-61 0 -110 -18.5t-84 -53t-54 -82.5t-19 -108q0 -48 18.5 -87t48 -71t65 -56t70.5 -42q14 -7 28.5 -13.5t30.5 -12.5zM573 867q78 2 146 -29.5t117.5 -85.5
t78 -124.5t28.5 -145.5q0 -98 -52.5 -183t-152.5 -150q130 -26 270 -26h99v-123h-99q-120 0 -232 17.5t-209 51.5q-99 -34 -216.5 -51.5t-252.5 -17.5h-123v123h123q160 0 296 26q-45 28 -84 64t-67 78t-44 90t-16 101q0 84 29 155.5t80.5 123t123 80t157.5 26.5zM736 1140
l-124 125q34 35 61.5 62.5t60.5 61.5l126 -125zM330 1142l-124 125q34 35 61.5 62.5t60.5 61.5l126 -125z" />
    <glyph glyph-name="uni0642" unicode="&#x642;" horiz-adv-x="1598" arabic-form="isolated" 
d="M1060 856q181 0 279 -116q108 -127 108 -400v-390q0 -227 -105 -348q-33 -38 -75.5 -66.5t-94.5 -47.5q-107 -40 -260 -40h-235q-144 0 -262 63.5t-192 180.5q-51 81 -75 182t-19 216q5 124 43.5 252t108.5 274l111 -53q-60 -125 -94.5 -239.5t-42.5 -216.5t9.5 -190.5
t62.5 -159.5q57 -89 147.5 -137.5t202.5 -48.5h235q241 0 337 111q75 87 75 267v51h-258q-75 0 -146.5 20t-127 66t-89 120t-33.5 181q0 88 21 172t67.5 150t120.5 106.5t181 40.5zM1324 123v217q0 113 -19.5 193.5t-59.5 127.5q-32 37 -76.5 54.5t-108.5 17.5
q-63 0 -112.5 -23.5t-84 -68t-52.5 -109t-18 -145.5q0 -67 19.5 -112.5t49 -75t64 -45t65 -22.5t51.5 -8t24 -1h258zM1288 1106l-124 125q34 35 61.5 62.5t60.5 61.5l126 -125zM882 1108l-124 125q34 35 61.5 62.5t60.5 61.5l126 -125z" />
    <glyph glyph-name="uni0642.fina" unicode="&#x642;" horiz-adv-x="1655" arabic-form="final" 
d="M1068 856q181 0 279 -116q108 -127 108 -400v-217h224v-62v-61h-224v-50q0 -227 -105 -348q-33 -38 -75.5 -66.5t-94.5 -47.5q-107 -40 -260 -40h-235q-144 0 -262 63.5t-192 180.5q-51 81 -75 182t-19 216q5 124 43.5 252t108.5 274l111 -53q-60 -125 -94.5 -239.5
t-42.5 -216.5t9.5 -190.5t62.5 -159.5q57 -89 147.5 -137.5t202.5 -48.5h235q241 0 337 111q75 87 75 267v51h-258q-75 0 -146.5 20t-127 66t-89 120t-33.5 181q0 88 21 172t67.5 150t120.5 106.5t181 40.5zM1332 123v217q0 113 -19.5 193.5t-59.5 127.5q-32 37 -76.5 54.5
t-108.5 17.5q-63 0 -112.5 -23.5t-84 -68t-52.5 -109t-18 -145.5q0 -67 19.5 -112.5t49 -75t64 -45t65 -22.5t51.5 -8t24 -1h258zM1286 1103l-124 125q34 35 61.5 62.5t60.5 61.5l126 -125zM880 1105l-124 125q34 35 61.5 62.5t60.5 61.5l126 -125z" />
    </font>
</defs>
</svg>
